<svg height="512" viewBox="0 0 64 64" width="512" xmlns="http://www.w3.org/2000/svg"><g id="_20-bibibap" data-name="20-bibibap"><circle cx="32" cy="32" fill="#e4e4e4" r="31"/><circle cx="32" cy="32" fill="#5c4535" r="28"/><circle cx="32" cy="32" fill="#ffffec" r="26"/><circle cx="32" cy="32" fill="#fffacd" r="26"/><path d="m32 50a26.006 26.006 0 0 1 -25.693-22 26 26 0 1 0 51.386 0 26.006 26.006 0 0 1 -25.693 22z" fill="#ede4a9"/><path d="m54.81 13.913a2.472 2.472 0 0 0 -.771.828 27.935 27.935 0 0 1 3.153 5.028 2.426 2.426 0 0 0 2.274-2.14 30.94 30.94 0 0 0 -2.494-3.993 2.49 2.49 0 0 0 -2.162.277z" fill="#a0775b"/><path d="m43.377 58.8a2.472 2.472 0 0 0 -.588-.958 28.054 28.054 0 0 1 -20.64.37 2.455 2.455 0 0 0 -.172 3.121 31 31 0 0 0 21.1-.378 2.487 2.487 0 0 0 .3-2.155z" fill="#a0775b"/><path d="m54.725 50.19a2.48 2.48 0 0 0 -.973-.565 28.136 28.136 0 0 1 -7.206 6.3 2.458 2.458 0 0 0 2.354 2.06 31.178 31.178 0 0 0 6.582-5.755 2.489 2.489 0 0 0 -.757-2.04z" fill="#a0775b"/><path d="m60.953 20.921a2.451 2.451 0 0 0 -3.112.284 28.047 28.047 0 0 1 1 18.757 2.458 2.458 0 0 0 1.019.484 2.475 2.475 0 0 0 2.111-.525 31.052 31.052 0 0 0 -1.022-19z" fill="#a0775b"/><path d="m5.73 19.448a2.472 2.472 0 0 0 1.078.321 28.056 28.056 0 0 1 3.152-5.028 2.452 2.452 0 0 0 -2.931-1.106 30.987 30.987 0 0 0 -2.5 4 2.488 2.488 0 0 0 1.201 1.813z" fill="#a0775b"/><path d="m17.023 56.964a2.477 2.477 0 0 0 .43-1.036 28.145 28.145 0 0 1 -7.2-6.3 2.452 2.452 0 0 0 -1.728 2.6 31.136 31.136 0 0 0 6.575 5.757 2.484 2.484 0 0 0 1.923-1.021z" fill="#a0775b"/><path d="m4.135 40.446a2.47 2.47 0 0 0 1.02-.485 28.042 28.042 0 0 1 1-18.755 2.45 2.45 0 0 0 -3.112-.285 31.043 31.043 0 0 0 -1.021 19 2.473 2.473 0 0 0 2.109.524z" fill="#a0775b"/><path d="m60.382 40.5a2.486 2.486 0 0 1 -.518-.055 2.458 2.458 0 0 1 -1.019-.484 27.925 27.925 0 0 1 -5.093 9.664 2.453 2.453 0 0 1 1.727 2.6 31.268 31.268 0 0 1 -3.079 3.11 30.959 30.959 0 0 0 10.011-17.3q-.187.951-.432 1.881a2.5 2.5 0 0 1 -1.597.584z" fill="#886454"/><path d="m58.269 19.448a2.468 2.468 0 0 1 -1.077.321q.343.706.649 1.436a2.451 2.451 0 0 1 3.112-.284 30.888 30.888 0 0 0 -2.653-5.321q.618.992 1.163 2.03a2.485 2.485 0 0 1 -1.194 1.818z" fill="#886454"/><path d="m9.189 13.913a2.472 2.472 0 0 1 .771.828 27.982 27.982 0 0 1 44.079 0 2.451 2.451 0 0 1 2.933-1.105 30.993 30.993 0 0 0 -51.243 1.913q.615-.982 1.3-1.914a2.483 2.483 0 0 1 2.16.278z" fill="#886454"/><path d="m21.6 59.192a2.46 2.46 0 0 1 .553-.979 27.9 27.9 0 0 1 -4.7-2.285 2.457 2.457 0 0 1 -2.35 2.057 30.893 30.893 0 0 0 6.874 3.349 2.484 2.484 0 0 1 -.377-2.142z" fill="#886454"/><path d="m46.976 56.964a2.479 2.479 0 0 1 -.43-1.035 27.964 27.964 0 0 1 -3.76 1.915 2.452 2.452 0 0 1 .283 3.113c-.4.154-.809.3-1.219.435a30.815 30.815 0 0 0 7.05-3.407 2.483 2.483 0 0 1 -1.924-1.021z" fill="#886454"/><path d="m5.2 20.617a2.467 2.467 0 0 1 .958.589q.3-.729.649-1.437a2.426 2.426 0 0 1 -2.275-2.138q.546-1.04 1.168-2.031a30.807 30.807 0 0 0 -2.65 5.321 2.488 2.488 0 0 1 2.15-.304z" fill="#886454"/><path d="m10.248 49.625a27.925 27.925 0 0 1 -5.093-9.664 2.468 2.468 0 0 1 -3.129-.039q-.246-.93-.433-1.882a30.885 30.885 0 0 0 6.927 14.188 2.452 2.452 0 0 1 1.728-2.6z" fill="#886454"/><path d="m30 9.94 1 1-1.53 1.53-1.53 1.53-1-1-1.3-1.3a2.16 2.16 0 0 1 1.53-3.69 2.149 2.149 0 0 1 1.53.63z" fill="#689441"/><path d="m35 19v1h-4v-3a2.006 2.006 0 0 1 2-2 2.015 2.015 0 0 1 2 2z" fill="#689441"/><path d="m41 13v1h-4v-3a2.006 2.006 0 0 1 2-2 2.015 2.015 0 0 1 2 2z" fill="#689441"/><path d="m30 7v2.94l-1.3-1.3a2.173 2.173 0 0 0 -3.06 0 2.173 2.173 0 0 0 0 3.06l1.3 1.3h-2.94l-2.49-2.37a1.726 1.726 0 0 1 0-2.45l3.67-3.67a1.726 1.726 0 0 1 1.23-.51 1.7 1.7 0 0 1 1.22.51z" fill="#6fa23b"/><path d="m37 14v2.6l-2 2.4v-2a2.015 2.015 0 0 0 -2-2 2.006 2.006 0 0 0 -2 2v2l-2-2.2v-3.2a1.6 1.6 0 0 1 1.6-1.6h4.8a1.545 1.545 0 0 1 1.08.43l.18.2a.5.5 0 0 1 .07.08 1.585 1.585 0 0 1 .27.89z" fill="#6fa23b"/><path d="m43 7.6v3l-2 2.4v-2a2.015 2.015 0 0 0 -2-2 2.006 2.006 0 0 0 -2 2v2l-.27-.29a.5.5 0 0 0 -.07-.08 1.123 1.123 0 0 0 -.18-.2l-1.48-1.63v-3.2a1.6 1.6 0 0 1 1.6-1.6h4.8a1.6 1.6 0 0 1 1.6 1.6z" fill="#6fa23b"/><path d="m58.99 22.77a1.859 1.859 0 0 1 -.55 1.5l-.17.17a.96.96 0 0 1 -1.35 0l-.67-.67.67-.67-.67-.67-2.01 2.01a1.877 1.877 0 0 1 -2.68 0 1.743 1.743 0 0 1 -.42-.63 1.763 1.763 0 0 1 -.14-.71 1.862 1.862 0 0 1 .56-1.34l2.01-2.01-.67-.67-.67.67-.67-.67a.96.96 0 0 1 0-1.35l.17-.17a1.859 1.859 0 0 1 1.5-.55 6.255 6.255 0 0 1 3.69 2.07 7.6 7.6 0 0 1 1.78 2.55 4.647 4.647 0 0 1 .29 1.14z" fill="#ede4a8"/><path d="m53 14.74v.26a1 1 0 0 1 -1 1h-1v-1h-1v3a2.006 2.006 0 0 1 -2 2 2.015 2.015 0 0 1 -2-2v-3h-1v1h-1a1 1 0 0 1 -1-1v-.26a1.956 1.956 0 0 1 .71-1.53 6.658 6.658 0 0 1 4.29-1.21 6.658 6.658 0 0 1 4.29 1.21 1.956 1.956 0 0 1 .71 1.53z" fill="#ede4a8"/><path d="m50.99 25.77a1.859 1.859 0 0 1 -.55 1.5l-.17.17a.96.96 0 0 1 -1.35 0l-.67-.67.67-.67-.67-.67-2.01 2.01a1.9 1.9 0 1 1 -2.68-2.68l2.01-2.01-.67-.67-.67.67-.67-.67a.96.96 0 0 1 0-1.35l.17-.17a1.859 1.859 0 0 1 1.5-.55 6.255 6.255 0 0 1 3.69 2.07 8.607 8.607 0 0 1 1.45 1.86 4.734 4.734 0 0 1 .62 1.83z" fill="#ede4a8"/><path d="m39 49 3.84 5.38a3.339 3.339 0 0 1 -2.43 1.58 17 17 0 0 0 -3.18.51c-1.1.43-2 1.37-3.07 1.88a7.428 7.428 0 0 1 -2.89.62 9.673 9.673 0 0 1 -3.26-.26 12.905 12.905 0 0 1 -2.35-1.05c-.68-.36-.66-.62-1.48-1.48l6.82-11.6-1.46-.86a11.041 11.041 0 0 0 2.46.28 10.9 10.9 0 0 0 6.27-1.96 2.581 2.581 0 0 1 1.73.96l-2 3v.03c-.33-.02-.67-.03-1-.03l-1 3a17.757 17.757 0 0 1 3-.09z" fill="#fdf9dc"/><path d="m36.035 48.9.3-.905a33.148 33.148 0 0 1 -8.194 1.45l-.7 1.187a23 23 0 0 0 4.943-.427 13.772 13.772 0 0 0 3.651-1.305z" fill="#fde9c8"/><path d="m36.6 47.194.219-.656a26.53 26.53 0 0 0 -7.266.5l-.644 1.1c.319-.114.643-.216.969-.3a26.06 26.06 0 0 1 6.722-.644z" fill="#fdd6aa"/><path d="m36.6 47.194a26.06 26.06 0 0 0 -6.722.641c-.326.082-.65.184-.969.3l-.769 1.308a33.148 33.148 0 0 0 8.194-1.45z" fill="#fdf9dc"/><path d="m38.219 49.951a10.846 10.846 0 0 0 1.125-.469l-.344-.482v-.09a17.757 17.757 0 0 0 -3 .09l.035-.1a13.772 13.772 0 0 1 -3.648 1.3 23 23 0 0 1 -4.943.427l-.287.489a5.035 5.035 0 0 0 .988.137 26.256 26.256 0 0 0 10.074-1.302z" fill="#fdd6aa"/><path d="m28.126 53.828c.093.13.18.263.277.39 2.5.048 5.01.095 7.505-.1a27.3 27.3 0 0 0 5.959-1.1l-.692-.969a23.565 23.565 0 0 1 -5.847 1.436 64.339 64.339 0 0 1 -7.202.343z" fill="#fdd6aa"/><path d="m36.821 46.538.095-.286q-3.423-.168-6.852-.079l-.509.865a26.53 26.53 0 0 1 7.266-.5z" fill="#fdf9dc"/><path d="m39.739 42.713a2.887 2.887 0 0 0 -1.469-.673 10.9 10.9 0 0 1 -6.27 1.96 11.041 11.041 0 0 1 -2.46-.28l1.46.86-.147.249a26.971 26.971 0 0 0 3.648-.3 14.506 14.506 0 0 0 5.238-1.816z" fill="#fdce98"/><path d="m38.076 44.742a9.165 9.165 0 0 0 .929-.25l.995-1.492a1.781 1.781 0 0 0 -.261-.287 14.506 14.506 0 0 1 -5.239 1.819 26.971 26.971 0 0 1 -3.648.3l-.112.191a35.808 35.808 0 0 0 7.336-.281z" fill="#fdd6aa"/><path d="m36.916 46.252.084-.252c.33 0 .67.01 1 .03v-.03l1.005-1.508a9.165 9.165 0 0 1 -.929.25 35.808 35.808 0 0 1 -7.335.278l-.677 1.153q3.426-.084 6.852.079z" fill="#fde9c8"/><path d="m25.8 53.425-.671 1.141c.007.008.011.019.018.027a8.1 8.1 0 0 0 .912.95 49.594 49.594 0 0 0 4.191 3.45c.19 0 .379 0 .569-.008a31.858 31.858 0 0 1 -5.019-5.56z" fill="#fdd6aa"/><path d="m33.4 55.255a10.674 10.674 0 0 1 4.123 1.134 7.539 7.539 0 0 1 1.468-.266 12.817 12.817 0 0 0 -5.591-.868z" fill="#fdd6aa"/><path d="m40.436 51.012-1.092-1.53a10.846 10.846 0 0 1 -1.125.469 26.256 26.256 0 0 1 -10.074 1.3 5.035 5.035 0 0 1 -.988-.137l-.35.6a16.33 16.33 0 0 0 1.319 2.116 64.339 64.339 0 0 0 7.2-.345 23.565 23.565 0 0 0 5.847-1.436z" fill="#fdf6c3"/><path d="m29.629 55.62a16.492 16.492 0 0 0 3.889 2.986 4.823 4.823 0 0 0 .642-.256 6.35 6.35 0 0 0 .759-.439c.56-.368 1.1-.786 1.674-1.117a16.649 16.649 0 0 0 -6.964-1.174z" fill="#fdae98"/><path d="m42.84 54.38-.973-1.364a27.3 27.3 0 0 1 -5.959 1.1c-2.5.2-5 .151-7.505.1.2.26.418.508.633.756a17.664 17.664 0 0 1 4.047-.276 37.222 37.222 0 0 1 4.917.287 15.085 15.085 0 0 1 3.12.787 3.036 3.036 0 0 0 1.72-1.39z" fill="#fdae98"/><path d="m33.083 54.7a17.664 17.664 0 0 0 -4.047.276c.192.221.389.435.593.646a16.649 16.649 0 0 1 6.964 1.174 4.71 4.71 0 0 1 .637-.324c.1-.036.193-.052.289-.081a10.674 10.674 0 0 0 -4.119-1.136 12.817 12.817 0 0 1 5.591.868c.475-.045.953-.079 1.423-.163a4.428 4.428 0 0 0 .711-.19 15.085 15.085 0 0 0 -3.125-.787 37.222 37.222 0 0 0 -4.917-.283z" fill="#fdf6c3"/><path d="m29.629 55.62c-.2-.211-.4-.425-.593-.646-.215-.248-.432-.5-.633-.756-.1-.127-.184-.26-.277-.39a16.33 16.33 0 0 1 -1.319-2.116l-.623 1.06c.977 1.288 2.04 2.509 3.138 3.7a17.357 17.357 0 0 0 2.649 2.446 7.376 7.376 0 0 0 1.547-.308 16.492 16.492 0 0 1 -3.889-2.99z" fill="#fdd6aa"/><path d="m24.723 55.256-.543.924c.82.86.8 1.12 1.48 1.48a13.608 13.608 0 0 0 2.223 1.006 10.292 10.292 0 0 1 -1.381-1.2 18.579 18.579 0 0 1 -1.779-2.21z" fill="#fdd6aa"/><path d="m25.147 54.593c-.007-.008-.011-.019-.018-.027l-.406.69a18.579 18.579 0 0 0 1.777 2.212 10.292 10.292 0 0 0 1.381 1.2c.043.014.084.031.127.044a8.037 8.037 0 0 0 2.24.283 49.594 49.594 0 0 1 -4.191-3.45 8.1 8.1 0 0 1 -.91-.952z" fill="#fdeccf"/><path d="m29.322 56.468c-1.1-1.187-2.161-2.408-3.138-3.7l-.384.653a31.858 31.858 0 0 0 5.019 5.56c.151-.005.3-.007.451-.015.233-.014.467-.032.7-.056a17.357 17.357 0 0 1 -2.648-2.442z" fill="#fde9c8"/><path d="m40.2 50.687-.86-1.2a10.846 10.846 0 0 1 -1.125.469 26.256 26.256 0 0 1 -10.074 1.3 5.035 5.035 0 0 1 -.988-.137l-.35.6c.228.442.485.867.755 1.284a48.97 48.97 0 0 0 5.021-.351 30.141 30.141 0 0 0 7.621-1.965z" fill="#fddbc0"/><path d="m40.2 50.687a30.141 30.141 0 0 1 -7.621 1.958 48.97 48.97 0 0 1 -5.017.355c.182.281.367.561.564.832a64.339 64.339 0 0 0 7.2-.345 23.565 23.565 0 0 0 5.847-1.436l-.739-1.035z" fill="#fdae98"/><ellipse cx="29.5" cy="54" fill="#ffee59" rx="1.5" ry="1"/><path d="m29.5 54a1.726 1.726 0 0 1 -1.292-.5.762.762 0 0 0 -.208.5c0 .552.672 1 1.5 1s1.5-.448 1.5-1a.762.762 0 0 0 -.208-.5 1.726 1.726 0 0 1 -1.292.5z" fill="#ffce52"/><ellipse cx="35.5" cy="51" fill="#ffee59" rx="1.5" ry="1"/><path d="m35.5 51a1.726 1.726 0 0 1 -1.292-.5.762.762 0 0 0 -.208.5c0 .552.672 1 1.5 1s1.5-.448 1.5-1a.762.762 0 0 0 -.208-.5 1.726 1.726 0 0 1 -1.292.5z" fill="#ffce52"/><ellipse cx="32.5" cy="49" fill="#ffee59" rx="1.5" ry="1"/><path d="m32.5 49a1.726 1.726 0 0 1 -1.292-.5.762.762 0 0 0 -.208.5c0 .552.672 1 1.5 1s1.5-.448 1.5-1a.762.762 0 0 0 -.208-.5 1.726 1.726 0 0 1 -1.292.5z" fill="#ffce52"/><ellipse cx="32.5" cy="55" fill="#ffee59" rx="1.5" ry="1"/><path d="m32.5 55a1.726 1.726 0 0 1 -1.292-.5.762.762 0 0 0 -.208.5c0 .552.672 1 1.5 1s1.5-.448 1.5-1a.762.762 0 0 0 -.208-.5 1.726 1.726 0 0 1 -1.292.5z" fill="#ffce52"/><ellipse cx="38.5" cy="55" fill="#ffee59" rx="1.5" ry="1"/><path d="m38.5 55a1.726 1.726 0 0 1 -1.292-.5.762.762 0 0 0 -.208.5c0 .552.672 1 1.5 1s1.5-.448 1.5-1a.762.762 0 0 0 -.208-.5 1.726 1.726 0 0 1 -1.292.5z" fill="#ffce52"/><path d="m58 39-1 3a18.809 18.809 0 0 1 -1.99-.11 32.56 32.56 0 0 1 -10.01-2.89v-3a15.276 15.276 0 0 0 1.94 1.11 20.992 20.992 0 0 0 11.06 1.89z" fill="#ff9a1f"/><path d="m57 34v3h-10l-.06.11a15.276 15.276 0 0 1 -1.94-1.11l6-1v-1z" fill="#ff9a1f"/><path d="m55.01 41.89-.01.11-1 3-13.63-4.87a10.605 10.605 0 0 0 1.85-3.06l2.78.93v1a32.56 32.56 0 0 0 10.01 2.89z" fill="#ff9a1f"/><path d="m52 47v4l-3-2a32.013 32.013 0 0 0 -11-2.97v-.03l2-3c4 0 12 4 12 4z" fill="#ff9a1f"/><path d="m51 34v1l-6 1v2l-2.78-.93a11 11 0 0 0 .78-4.07 37.839 37.839 0 0 1 8-1z" fill="#ff9a1f"/><path d="m49 49v3a17.606 17.606 0 0 0 -4.93-2.26 21.172 21.172 0 0 0 -5.07-.83 17.757 17.757 0 0 0 -3 .09l1-3c.33 0 .67.01 1 .03a32.013 32.013 0 0 1 11 2.97z" fill="#ff9a1f"/><path d="m42.84 54.38-3.84-5.38v-.09a21.172 21.172 0 0 1 5.07.83l-.07.26 3 4-3 2z" fill="#ff9a1f"/><path d="m44 50 .07-.26a21.172 21.172 0 0 0 -5.07-.83v.09l1.427 2h1.441a2 2 0 0 1 1.715.971l1.846 3.077 1.571-1.048z" fill="#ff8000"/><path d="m40.8 47.435a39.708 39.708 0 0 1 8.2 2.85v-1.285a32.013 32.013 0 0 0 -11-2.97c-.33-.02-.67-.03-1-.03l-1 3a16.666 16.666 0 0 1 2.37-.109l.049-.147a1.992 1.992 0 0 1 2.381-1.309z" fill="#f55d05"/><path d="m41.919 43.226a10.1 10.1 0 0 0 -1.919-.226l-2 3v.03a32.013 32.013 0 0 1 11 2.97l3 2v-2.051c-2.382-2.056-6.387-3.117-8.853-3.6a1.632 1.632 0 0 1 -1.228-2.123z" fill="#ff8000"/><path d="m55 42 .01-.11a32.56 32.56 0 0 1 -10.01-2.89v-1l-2.78-.93a10.49 10.49 0 0 1 -.776 1.573 119.4 119.4 0 0 0 13.015 4.98z" fill="#e45705"/><path d="m48.312 39.51a1.993 1.993 0 0 1 -1.312-1.878v-.495l-.06-.027a15.276 15.276 0 0 1 -1.94-1.11v3a32.56 32.56 0 0 0 10.01 2.89 18.809 18.809 0 0 0 1.99.11l.3-.892c-2.915.392-6.936-.85-8.988-1.598z" fill="#ff7e05"/><path d="m42.22 37.07 2.78.93v-2h-2.422a11.1 11.1 0 0 1 -.358 1.07z" fill="#cc4b00"/><path d="m45.028 32.582c-1.228.218-2.028.418-2.028.418a10.953 10.953 0 0 1 -.422 3h2.422l6-1v-1.714l-3.451.986a1.991 1.991 0 0 1 -2.521-1.69z" fill="#ff7e05"/><path d="m54 36a2 2 0 0 1 -2-2h-1v1l-6 1a15.276 15.276 0 0 0 1.94 1.11l.06-.11h10v-1z" fill="#f55d05"/><path d="m38.293 22.536-.707.707-2.829-2.829.283-.283.424-.424 1.415-1.414a2.005 2.005 0 0 1 2.828 0 2.014 2.014 0 0 1 0 2.828z" fill="#547d30"/><path d="m43.525 20.131-2.125 2.122-3.111.283 1.414-1.415a2.014 2.014 0 0 0 0-2.828 2.005 2.005 0 0 0 -2.828 0l-1.415 1.414.015-.4a.506.506 0 0 0 .007-.106 1.137 1.137 0 0 0 .014-.269l.106-2.2 2.263-2.262a1.6 1.6 0 0 1 2.262 0l3.394 3.394a1.6 1.6 0 0 1 .004 2.267z" fill="#6fa23b"/><path d="m35.606 16.737-.106 2.2a1.137 1.137 0 0 1 -.014.269.506.506 0 0 1 -.007.106l-.015.4 1.179-1.178.943-3.772z" fill="#699934"/><path d="m40.287 19.707c0 .018 0 .035-.005.053l3.561-1.425a1.585 1.585 0 0 0 -.317-.466l-1.7-1.7-2.121 2.121a1.955 1.955 0 0 1 .582 1.417z" fill="#84b851"/><path d="m38.293 22.536 3.111-.283 1.132-1.132-3.3.472z" fill="#699934"/><path d="m39.707 18.293 2.121-2.121-1.7-1.7a1.585 1.585 0 0 0 -.466-.317l-1.424 3.557a1.993 1.993 0 0 1 1.469.581z" fill="#93b86e"/><path d="m38.241 17.714 1.424-3.557a1.6 1.6 0 0 0 -1.8.317l-.283.283-.943 3.772.236-.236a1.989 1.989 0 0 1 1.366-.579z" fill="#719e4d"/><path d="m43.843 18.335-3.561 1.425a1.944 1.944 0 0 1 -.575 1.361l-.471.472 3.3-.472.99-.99a1.6 1.6 0 0 0 .317-1.796z" fill="#719e4d"/><path d="m36.879 22.536-1.415-1.415 2.122-2.121a1 1 0 0 1 1.414 0 1 1 0 0 1 0 1.414z" fill="#719657"/><path d="m35 13v1h-4v-3a2.006 2.006 0 0 1 2-2 2.015 2.015 0 0 1 2 2z" fill="#547d30"/><path d="m37 7.6v3l-2 2.4v-2a2.015 2.015 0 0 0 -2-2 2.006 2.006 0 0 0 -2 2v2l-.27-.29a.5.5 0 0 0 -.07-.08 1.123 1.123 0 0 0 -.18-.2l-1.48-1.63v-3.2a1.6 1.6 0 0 1 1.6-1.6h4.8a1.6 1.6 0 0 1 1.6 1.6z" fill="#6fa23b"/><path d="m29 10.8 1.48 1.63a1.123 1.123 0 0 1 .18.2.5.5 0 0 1 .07.08l.27.29v-1.667l-2-3.333z" fill="#699934"/><path d="m34.41 9.59c.013.012.022.028.034.04l1.511-3.525a1.577 1.577 0 0 0 -.555-.105h-2.4v3a1.955 1.955 0 0 1 1.41.59z" fill="#84b851"/><path d="m35 13 2-2.4v-1.6l-2 2.667z" fill="#699934"/><path d="m33 9v-3h-2.4a1.577 1.577 0 0 0 -.555.105l1.51 3.522a1.99 1.99 0 0 1 1.445-.627z" fill="#93b86e"/><path d="m31.555 9.627-1.51-3.522a1.6 1.6 0 0 0 -1.045 1.495v.4l2 3.333v-.333a1.989 1.989 0 0 1 .555-1.373z" fill="#719e4d"/><path d="m35.955 6.105-1.511 3.525a1.951 1.951 0 0 1 .556 1.37v.667l2-2.667v-1.4a1.6 1.6 0 0 0 -1.045-1.495z" fill="#719e4d"/><path d="m34 14h-2v-3a1 1 0 0 1 1-1 1 1 0 0 1 1 1z" fill="#719657"/><path d="m30 21v1h-4v-3a2.006 2.006 0 0 1 2-2 2.015 2.015 0 0 1 2 2z" fill="#547d30"/><path d="m32 15.6v3l-2 2.4v-2a2.015 2.015 0 0 0 -2-2 2.006 2.006 0 0 0 -2 2v2l-.27-.29a.5.5 0 0 0 -.07-.08 1.123 1.123 0 0 0 -.18-.2l-1.48-1.63v-3.2a1.6 1.6 0 0 1 1.6-1.6h4.8a1.6 1.6 0 0 1 1.6 1.6z" fill="#6fa23b"/><path d="m24 18.8 1.48 1.63a1.123 1.123 0 0 1 .18.2.5.5 0 0 1 .07.08l.27.29v-1.667l-2-3.333z" fill="#699934"/><path d="m29.41 17.59c.013.012.022.028.034.04l1.511-3.525a1.577 1.577 0 0 0 -.555-.105h-2.4v3a1.955 1.955 0 0 1 1.41.59z" fill="#84b851"/><path d="m30 21 2-2.4v-1.6l-2 2.667z" fill="#699934"/><path d="m28 17v-3h-2.4a1.577 1.577 0 0 0 -.555.105l1.51 3.522a1.99 1.99 0 0 1 1.445-.627z" fill="#93b86e"/><path d="m26.555 17.627-1.51-3.522a1.6 1.6 0 0 0 -1.045 1.495v.4l2 3.333v-.333a1.989 1.989 0 0 1 .555-1.373z" fill="#719e4d"/><path d="m30.955 14.105-1.511 3.525a1.951 1.951 0 0 1 .556 1.37v.667l2-2.667v-1.4a1.6 1.6 0 0 0 -1.045-1.495z" fill="#719e4d"/><path d="m29 22h-2v-3a1 1 0 0 1 1-1 1 1 0 0 1 1 1z" fill="#719657"/><path d="m35 19v1h-4v-3a2.006 2.006 0 0 1 2-2 2.015 2.015 0 0 1 2 2z" fill="#416125"/><path d="m37 13.6v3l-2 2.4v-2a2.015 2.015 0 0 0 -2-2 2.006 2.006 0 0 0 -2 2v2l-.27-.29a.5.5 0 0 0 -.07-.08 1.123 1.123 0 0 0 -.18-.2l-1.48-1.63v-3.2a1.6 1.6 0 0 1 1.6-1.6h4.8a1.6 1.6 0 0 1 1.6 1.6z" fill="#6fa23b"/><path d="m29 16.8 1.48 1.63a1.123 1.123 0 0 1 .18.2.5.5 0 0 1 .07.08l.27.29v-1.667l-2-3.333z" fill="#53752e"/><path d="m34.41 15.59c.013.012.022.028.034.04l1.511-3.525a1.577 1.577 0 0 0 -.555-.105h-2.4v3a1.955 1.955 0 0 1 1.41.59z" fill="#6cad2c"/><path d="m35 19 2-2.4v-1.6l-2 2.667z" fill="#53752e"/><path d="m33 15v-3h-2.4a1.577 1.577 0 0 0 -.555.105l1.51 3.522a1.99 1.99 0 0 1 1.445-.627z" fill="#65a229"/><path d="m31.555 15.627-1.51-3.522a1.6 1.6 0 0 0 -1.045 1.495v.4l2 3.333v-.333a1.989 1.989 0 0 1 .555-1.373z" fill="#548430"/><path d="m35.955 12.105-1.511 3.525a1.951 1.951 0 0 1 .556 1.37v.667l2-2.667v-1.4a1.6 1.6 0 0 0 -1.045-1.495z" fill="#548430"/><path d="m34 20h-2v-3a1 1 0 0 1 1-1 1 1 0 0 1 1 1z" fill="#548430"/><path d="m41 13v1h-4v-3a2.006 2.006 0 0 1 2-2 2.015 2.015 0 0 1 2 2z" fill="#416125"/><path d="m43 7.6v3l-2 2.4v-2a2.015 2.015 0 0 0 -2-2 2.006 2.006 0 0 0 -2 2v2l-.27-.29a.5.5 0 0 0 -.07-.08 1.123 1.123 0 0 0 -.18-.2l-1.48-1.63v-3.2a1.6 1.6 0 0 1 1.6-1.6h4.8a1.6 1.6 0 0 1 1.6 1.6z" fill="#6fa23b"/><path d="m35 10.8 1.48 1.63a1.123 1.123 0 0 1 .18.2.5.5 0 0 1 .07.08l.27.29v-1.667l-2-3.333z" fill="#53752e"/><path d="m40.41 9.59c.013.012.022.028.034.04l1.511-3.525a1.577 1.577 0 0 0 -.555-.105h-2.4v3a1.955 1.955 0 0 1 1.41.59z" fill="#6cad2c"/><path d="m41 13 2-2.4v-1.6l-2 2.667z" fill="#53752e"/><path d="m39 9v-3h-2.4a1.577 1.577 0 0 0 -.555.105l1.51 3.522a1.99 1.99 0 0 1 1.445-.627z" fill="#65a229"/><path d="m37.555 9.627-1.51-3.522a1.6 1.6 0 0 0 -1.045 1.495v.4l2 3.333v-.333a1.989 1.989 0 0 1 .555-1.373z" fill="#548430"/><path d="m41.955 6.105-1.511 3.525a1.951 1.951 0 0 1 .556 1.37v.667l2-2.667v-1.4a1.6 1.6 0 0 0 -1.045-1.495z" fill="#548430"/><path d="m40 14h-2v-3a1 1 0 0 1 1-1 1 1 0 0 1 1 1z" fill="#548430"/><path d="m30.234 10.172.766.765-3.063 3.063-.306-.306-.459-.46-1.532-1.534a2.173 2.173 0 0 1 0-3.063 2.181 2.181 0 0 1 3.063 0z" fill="#416125"/><path d="m27.631 4.505 2.3 2.3.306 3.37-1.537-1.535a2.181 2.181 0 0 0 -3.063 0 2.173 2.173 0 0 0 0 3.063l1.532 1.531-.429-.015a.524.524 0 0 0 -.115-.008 1.217 1.217 0 0 0 -.291-.015l-2.381-.115-2.451-2.45a1.739 1.739 0 0 1 0-2.45l3.676-3.676a1.739 1.739 0 0 1 2.453 0z" fill="#6fa23b"/><path d="m23.956 13.081 2.381.115a1.217 1.217 0 0 1 .291.015.524.524 0 0 1 .115.008l.429.015-1.272-1.276-4.083-1.021z" fill="#53752e"/><path d="m27.171 8.012h.058l-1.543-3.851a1.748 1.748 0 0 0 -.5.344l-1.843 1.838 2.3 2.3a2.121 2.121 0 0 1 1.528-.631z" fill="#6cad2c"/><path d="m30.234 10.172-.306-3.37-1.225-1.225.51 3.574z" fill="#53752e"/><path d="m25.64 8.64-2.3-2.3-1.835 1.841a1.748 1.748 0 0 0 -.344.505l3.853 1.541a2.155 2.155 0 0 1 .626-1.587z" fill="#65a229"/><path d="m25.014 10.227-3.853-1.541a1.735 1.735 0 0 0 .344 1.945l.307.306 4.088 1.021-.26-.258a2.149 2.149 0 0 1 -.626-1.473z" fill="#548430"/><path d="m25.686 4.161 1.543 3.856a2.111 2.111 0 0 1 1.471.623l.51.511-.51-3.574-1.069-1.072a1.735 1.735 0 0 0 -1.945-.344z" fill="#548430"/><path d="m30.234 11.7-1.534 1.534-2.3-2.3a1.082 1.082 0 0 1 0-1.531 1.082 1.082 0 0 1 1.531 0z" fill="#548430"/><path d="m54.439 24.272-.174.174a.953.953 0 0 1 -1.343 0l-.671-.671.671-.671-.671-.671-2.015 2.013a1.9 1.9 0 0 1 -2.685 0 1.91 1.91 0 0 1 0-2.684l2.014-2.014-.671-.671-.672.671-.671-.671a.95.95 0 0 1 0-1.342l.174-.175a1.858 1.858 0 0 1 1.5-.55 6.324 6.324 0 0 1 3.693 2.067 6.324 6.324 0 0 1 2.068 3.691 1.858 1.858 0 0 1 -.547 1.504z" fill="#fff5db"/><path d="m48.071 17.292a1.953 1.953 0 0 0 -.346.268l-.174.175a.95.95 0 0 0 0 1.342l.671.671v-1.342a.94.94 0 0 1 -.151-1.114z" fill="#fcb584"/><path d="m53.593 23.775h-1.342l.671.671a.953.953 0 0 0 1.343 0l.174-.174a1.963 1.963 0 0 0 .275-.35.941.941 0 0 1 -1.121-.147z" fill="#fcb584"/><path d="m52.922 19.077a6.324 6.324 0 0 0 -3.693-2.067 1.257 1.257 0 0 0 -.221-.01 1.876 1.876 0 0 0 -1.283.557l-.174.175a.887.887 0 0 0 -.152.229 1.818 1.818 0 0 1 .937-.29 1.373 1.373 0 0 1 .222.007 6.324 6.324 0 0 1 3.693 2.067 6.323 6.323 0 0 1 2.068 3.692 1.809 1.809 0 0 1 -.276 1.153.911.911 0 0 0 .222-.147l.174-.174a1.856 1.856 0 0 0 .551-1.5 6.324 6.324 0 0 0 -2.068-3.692z" fill="#cc7539"/><path d="m48.222 23.775a1.912 1.912 0 0 1 0-2.684l-.671.671a1.91 1.91 0 0 0 0 2.684 1.9 1.9 0 0 0 2.685 0l.672-.671a1.906 1.906 0 0 1 -2.686 0z" fill="#fcb584"/><path d="m48.616 21.287h1.9a.474.474 0 0 1 .474.474.475.475 0 0 1 -.475.475h-1.9a.474.474 0 0 1 -.474-.474.475.475 0 0 1 .475-.475z" fill="#ffc59c" transform="matrix(.707 -.707 .707 .707 -.867 41.431)"/><path d="m49.287 21.958h1.9a.474.474 0 0 1 .474.474.475.475 0 0 1 -.475.475h-1.9a.474.474 0 0 1 -.474-.474.475.475 0 0 1 .475-.475z" fill="#ffd7ba" transform="matrix(.707 -.707 .707 .707 -1.145 42.103)"/><path d="m42.561 30.272.174.174a.953.953 0 0 0 1.343 0l.671-.671-.671-.671.671-.671 2.015 2.013a1.9 1.9 0 0 0 2.685 0 1.91 1.91 0 0 0 0-2.684l-2.014-2.014.671-.671.672.671.671-.671a.95.95 0 0 0 0-1.342l-.174-.175a1.858 1.858 0 0 0 -1.5-.55 6.324 6.324 0 0 0 -3.693 2.067 6.324 6.324 0 0 0 -2.068 3.691 1.858 1.858 0 0 0 .547 1.504z" fill="#fff5db"/><path d="m48.929 23.292a1.953 1.953 0 0 1 .346.268l.174.175a.95.95 0 0 1 0 1.342l-.671.671v-1.342a.94.94 0 0 0 .151-1.114z" fill="#fcb584"/><path d="m43.407 29.775h1.342l-.671.671a.953.953 0 0 1 -1.343 0l-.174-.174a1.963 1.963 0 0 1 -.275-.35.941.941 0 0 0 1.121-.147z" fill="#fcb584"/><path d="m44.078 25.077a6.324 6.324 0 0 1 3.693-2.067 1.257 1.257 0 0 1 .221-.01 1.876 1.876 0 0 1 1.283.557l.174.175a.887.887 0 0 1 .152.229 1.818 1.818 0 0 0 -.937-.29 1.373 1.373 0 0 0 -.222.007 6.324 6.324 0 0 0 -3.693 2.067 6.323 6.323 0 0 0 -2.068 3.692 1.809 1.809 0 0 0 .276 1.153.911.911 0 0 1 -.222-.147l-.174-.174a1.856 1.856 0 0 1 -.551-1.5 6.324 6.324 0 0 1 2.068-3.692z" fill="#cc7539"/><path d="m48.778 29.775a1.912 1.912 0 0 0 0-2.684l.671.671a1.91 1.91 0 0 1 0 2.684 1.9 1.9 0 0 1 -2.685 0l-.672-.671a1.906 1.906 0 0 0 2.686 0z" fill="#fcb584"/><path d="m47.435 26.338a.474.474 0 0 1 .474.474v1.9a.475.475 0 0 1 -.475.475.474.474 0 0 1 -.474-.474v-1.9a.475.475 0 0 1 .475-.475z" fill="#ffc59c" transform="matrix(.707 -.707 .707 .707 -5.74 41.663)"/><path d="m46.764 27.009a.474.474 0 0 1 .474.474v1.9a.475.475 0 0 1 -.475.475.474.474 0 0 1 -.474-.474v-1.9a.475.475 0 0 1 .475-.475z" fill="#ffd7ba" transform="matrix(.707 -.707 .707 .707 -6.411 41.384)"/><path d="m37.561 26.272.174.174a.953.953 0 0 0 1.343 0l.671-.671-.671-.671.671-.671 2.015 2.013a1.9 1.9 0 0 0 2.685 0 1.91 1.91 0 0 0 0-2.684l-2.014-2.014.671-.671.672.671.671-.671a.95.95 0 0 0 0-1.342l-.174-.175a1.858 1.858 0 0 0 -1.5-.55 6.324 6.324 0 0 0 -3.693 2.067 6.324 6.324 0 0 0 -2.068 3.691 1.858 1.858 0 0 0 .547 1.504z" fill="#fff5db"/><path d="m43.929 19.292a1.953 1.953 0 0 1 .346.268l.174.175a.95.95 0 0 1 0 1.342l-.671.671v-1.342a.94.94 0 0 0 .151-1.114z" fill="#fcb584"/><path d="m38.407 25.775h1.342l-.671.671a.953.953 0 0 1 -1.343 0l-.174-.174a1.963 1.963 0 0 1 -.275-.35.941.941 0 0 0 1.121-.147z" fill="#fcb584"/><path d="m39.078 21.077a6.324 6.324 0 0 1 3.693-2.067 1.257 1.257 0 0 1 .221-.01 1.876 1.876 0 0 1 1.283.557l.174.175a.887.887 0 0 1 .152.229 1.818 1.818 0 0 0 -.937-.29 1.373 1.373 0 0 0 -.222.007 6.324 6.324 0 0 0 -3.693 2.067 6.323 6.323 0 0 0 -2.068 3.692 1.809 1.809 0 0 0 .276 1.153.911.911 0 0 1 -.222-.147l-.174-.174a1.856 1.856 0 0 1 -.551-1.5 6.324 6.324 0 0 1 2.068-3.692z" fill="#cc7539"/><path d="m43.778 25.775a1.912 1.912 0 0 0 0-2.684l.671.671a1.91 1.91 0 0 1 0 2.684 1.9 1.9 0 0 1 -2.685 0l-.672-.671a1.906 1.906 0 0 0 2.686 0z" fill="#fcb584"/><path d="m42.435 22.338a.474.474 0 0 1 .474.474v1.9a.475.475 0 0 1 -.475.475.474.474 0 0 1 -.474-.474v-1.9a.475.475 0 0 1 .475-.475z" fill="#ffc59c" transform="matrix(.707 -.707 .707 .707 -4.376 36.957)"/><path d="m41.764 23.009a.474.474 0 0 1 .474.474v1.9a.475.475 0 0 1 -.475.475.474.474 0 0 1 -.474-.474v-1.9a.475.475 0 0 1 .475-.475z" fill="#ffd7ba" transform="matrix(.707 -.707 .707 .707 -5.047 36.678)"/><path d="m58 25.74v.26a1 1 0 0 1 -1 1h-1v-1h-1v3a2.006 2.006 0 0 1 -2 2 2.015 2.015 0 0 1 -2-2v-3h-1v1h-1a1 1 0 0 1 -1-1v-.26a1.956 1.956 0 0 1 .71-1.53 6.658 6.658 0 0 1 4.29-1.21 6.658 6.658 0 0 1 4.29 1.21 1.956 1.956 0 0 1 .71 1.53z" fill="#fff5db"/><path d="m48.058 25.283a2.008 2.008 0 0 0 -.058.457v.26a1 1 0 0 0 1 1h1l-1-1a.989.989 0 0 1 -.942-.717z" fill="#fcb584"/><path d="m57 26-1 1h1a1 1 0 0 0 1-1v-.26a2.068 2.068 0 0 0 -.056-.465.99.99 0 0 1 -.944.725z" fill="#fcb584"/><path d="m53 23a6.658 6.658 0 0 0 -4.29 1.21 1.288 1.288 0 0 0 -.17.16 1.97 1.97 0 0 0 -.54 1.37v.26a.957.957 0 0 0 .058.283 1.913 1.913 0 0 1 .482-.913 1.288 1.288 0 0 1 .17-.16 6.658 6.658 0 0 1 4.29-1.21 6.658 6.658 0 0 1 4.29 1.21 1.907 1.907 0 0 1 .654 1.065.975.975 0 0 0 .056-.275v-.26a1.956 1.956 0 0 0 -.71-1.53 6.658 6.658 0 0 0 -4.29-1.21z" fill="#cc7539"/><path d="m53 30a2.015 2.015 0 0 1 -2-2v1a2.015 2.015 0 0 0 2 2 2.006 2.006 0 0 0 2-2v-1a2.006 2.006 0 0 1 -2 2z" fill="#fcb584"/><rect fill="#ffc59c" height="3" rx=".5" width="1" x="52" y="26"/><rect fill="#ffd7ba" height="3" rx=".5" width="1" x="53" y="26"/><path d="m45 31.26v-.26a1 1 0 0 1 1-1h1v1h1v-3a2.006 2.006 0 0 1 2-2 2.015 2.015 0 0 1 2 2v3h1v-1h1a1 1 0 0 1 1 1v.26a1.956 1.956 0 0 1 -.71 1.53 6.658 6.658 0 0 1 -4.29 1.21 6.658 6.658 0 0 1 -4.29-1.21 1.956 1.956 0 0 1 -.71-1.53z" fill="#fff5db"/><path d="m54.942 31.717a2.008 2.008 0 0 0 .058-.457v-.26a1 1 0 0 0 -1-1h-1l1 1a.989.989 0 0 1 .942.717z" fill="#fcb584"/><path d="m46 31 1-1h-1a1 1 0 0 0 -1 1v.26a2.068 2.068 0 0 0 .056.465.99.99 0 0 1 .944-.725z" fill="#fcb584"/><path d="m50 34a6.658 6.658 0 0 0 4.29-1.21 1.288 1.288 0 0 0 .17-.16 1.97 1.97 0 0 0 .54-1.37v-.26a.957.957 0 0 0 -.058-.283 1.913 1.913 0 0 1 -.482.913 1.288 1.288 0 0 1 -.17.16 6.658 6.658 0 0 1 -4.29 1.21 6.658 6.658 0 0 1 -4.29-1.21 1.907 1.907 0 0 1 -.654-1.065.975.975 0 0 0 -.056.275v.26a1.956 1.956 0 0 0 .71 1.53 6.658 6.658 0 0 0 4.29 1.21z" fill="#cc7539"/><path d="m50 27a2.015 2.015 0 0 1 2 2v-1a2.015 2.015 0 0 0 -2-2 2.006 2.006 0 0 0 -2 2v1a2.006 2.006 0 0 1 2-2z" fill="#fcb584"/><rect fill="#ffc59c" height="3" rx=".5" width="1" x="50" y="28"/><rect fill="#ffd7ba" height="3" rx=".5" width="1" x="49" y="28"/><path d="m49 17.74v.26a1 1 0 0 1 -1 1h-1v-1h-1v3a2.006 2.006 0 0 1 -2 2 2.015 2.015 0 0 1 -2-2v-3h-1v1h-1a1 1 0 0 1 -1-1v-.26a1.956 1.956 0 0 1 .71-1.53 6.658 6.658 0 0 1 4.29-1.21 6.658 6.658 0 0 1 4.29 1.21 1.956 1.956 0 0 1 .71 1.53z" fill="#fff5db"/><path d="m39.058 17.283a2.008 2.008 0 0 0 -.058.457v.26a1 1 0 0 0 1 1h1l-1-1a.989.989 0 0 1 -.942-.717z" fill="#fcb584"/><path d="m48 18-1 1h1a1 1 0 0 0 1-1v-.26a2.068 2.068 0 0 0 -.056-.465.99.99 0 0 1 -.944.725z" fill="#fcb584"/><path d="m44 15a6.658 6.658 0 0 0 -4.29 1.21 1.288 1.288 0 0 0 -.17.16 1.97 1.97 0 0 0 -.54 1.37v.26a.957.957 0 0 0 .058.283 1.913 1.913 0 0 1 .482-.913 1.288 1.288 0 0 1 .17-.16 6.658 6.658 0 0 1 4.29-1.21 6.658 6.658 0 0 1 4.29 1.21 1.907 1.907 0 0 1 .654 1.065.975.975 0 0 0 .056-.275v-.26a1.956 1.956 0 0 0 -.71-1.53 6.658 6.658 0 0 0 -4.29-1.21z" fill="#cc7539"/><path d="m44 22a2.015 2.015 0 0 1 -2-2v1a2.015 2.015 0 0 0 2 2 2.006 2.006 0 0 0 2-2v-1a2.006 2.006 0 0 1 -2 2z" fill="#fcb584"/><rect fill="#ffc59c" height="3" rx=".5" width="1" x="43" y="18"/><rect fill="#ffd7ba" height="3" rx=".5" width="1" x="44" y="18"/><path d="m60 28.74v.26a1 1 0 0 1 -1 1h-1v-1h-1v3a2.006 2.006 0 0 1 -2 2 2.015 2.015 0 0 1 -2-2v-3h-1v1h-1a1 1 0 0 1 -1-1v-.26a1.956 1.956 0 0 1 .71-1.53 6.658 6.658 0 0 1 4.29-1.21 6.658 6.658 0 0 1 4.29 1.21 1.956 1.956 0 0 1 .71 1.53z" fill="#ffe9ad"/><path d="m50.058 28.283a2.008 2.008 0 0 0 -.058.457v.26a1 1 0 0 0 1 1h1l-1-1a.989.989 0 0 1 -.942-.717z" fill="#ffd0b0"/><path d="m59 29-1 1h1a1 1 0 0 0 1-1v-.26a2.068 2.068 0 0 0 -.056-.465.99.99 0 0 1 -.944.725z" fill="#ffd0b0"/><path d="m55 26a6.658 6.658 0 0 0 -4.29 1.21 1.288 1.288 0 0 0 -.17.16 1.97 1.97 0 0 0 -.54 1.37v.26a.957.957 0 0 0 .058.283 1.913 1.913 0 0 1 .482-.913 1.288 1.288 0 0 1 .17-.16 6.658 6.658 0 0 1 4.29-1.21 6.658 6.658 0 0 1 4.29 1.21 1.907 1.907 0 0 1 .654 1.065.975.975 0 0 0 .056-.275v-.26a1.956 1.956 0 0 0 -.71-1.53 6.658 6.658 0 0 0 -4.29-1.21z" fill="#a8602f"/><path d="m55 33a2.015 2.015 0 0 1 -2-2v1a2.015 2.015 0 0 0 2 2 2.006 2.006 0 0 0 2-2v-1a2.006 2.006 0 0 1 -2 2z" fill="#dd9e73"/><rect fill="#edb791" height="3" rx=".5" width="1" x="54" y="29"/><rect fill="#ffc8a1" height="3" rx=".5" width="1" x="55" y="29"/><path d="m53 14.74v.26a1 1 0 0 1 -1 1h-1v-1h-1v3a2.006 2.006 0 0 1 -2 2 2.015 2.015 0 0 1 -2-2v-3h-1v1h-1a1 1 0 0 1 -1-1v-.26a1.956 1.956 0 0 1 .71-1.53 6.658 6.658 0 0 1 4.29-1.21 6.658 6.658 0 0 1 4.29 1.21 1.956 1.956 0 0 1 .71 1.53z" fill="#ffe9ad"/><path d="m43.058 14.283a2.008 2.008 0 0 0 -.058.457v.26a1 1 0 0 0 1 1h1l-1-1a.989.989 0 0 1 -.942-.717z" fill="#ffc8a1"/><path d="m52 15-1 1h1a1 1 0 0 0 1-1v-.26a2.068 2.068 0 0 0 -.056-.465.99.99 0 0 1 -.944.725z" fill="#ffc8a1"/><path d="m48 12a6.658 6.658 0 0 0 -4.29 1.21 1.288 1.288 0 0 0 -.17.16 1.97 1.97 0 0 0 -.54 1.37v.26a.957.957 0 0 0 .058.283 1.913 1.913 0 0 1 .482-.913 1.288 1.288 0 0 1 .17-.16 6.658 6.658 0 0 1 4.29-1.21 6.658 6.658 0 0 1 4.29 1.21 1.907 1.907 0 0 1 .654 1.065.975.975 0 0 0 .056-.275v-.26a1.956 1.956 0 0 0 -.71-1.53 6.658 6.658 0 0 0 -4.29-1.21z" fill="#a8602f"/><path d="m48 19a2.015 2.015 0 0 1 -2-2v1a2.015 2.015 0 0 0 2 2 2.006 2.006 0 0 0 2-2v-1a2.006 2.006 0 0 1 -2 2z" fill="#dd9e73"/><rect fill="#edb791" height="3" rx=".5" width="1" x="47" y="15"/><rect fill="#ffc8a1" height="3" rx=".5" width="1" x="48" y="15"/><path d="m58.439 24.272-.174.174a.953.953 0 0 1 -1.343 0l-.671-.671.671-.671-.671-.671-2.015 2.013a1.9 1.9 0 0 1 -2.685 0 1.91 1.91 0 0 1 0-2.684l2.014-2.014-.671-.671-.672.671-.671-.671a.95.95 0 0 1 0-1.342l.174-.175a1.858 1.858 0 0 1 1.5-.55 6.324 6.324 0 0 1 3.693 2.067 6.324 6.324 0 0 1 2.068 3.691 1.858 1.858 0 0 1 -.547 1.504z" fill="#ffe9ad"/><path d="m52.071 17.292a1.953 1.953 0 0 0 -.346.268l-.174.175a.95.95 0 0 0 0 1.342l.671.671v-1.342a.94.94 0 0 1 -.151-1.114z" fill="#ffc8a1"/><path d="m57.593 23.775h-1.342l.671.671a.953.953 0 0 0 1.343 0l.174-.174a1.963 1.963 0 0 0 .275-.35.941.941 0 0 1 -1.121-.147z" fill="#ffc8a1"/><path d="m56.922 19.077a6.324 6.324 0 0 0 -3.693-2.067 1.257 1.257 0 0 0 -.221-.01 1.876 1.876 0 0 0 -1.283.557l-.174.175a.887.887 0 0 0 -.152.229 1.818 1.818 0 0 1 .937-.29 1.373 1.373 0 0 1 .222.007 6.324 6.324 0 0 1 3.693 2.067 6.323 6.323 0 0 1 2.068 3.692 1.809 1.809 0 0 1 -.276 1.153.911.911 0 0 0 .222-.147l.174-.174a1.856 1.856 0 0 0 .551-1.5 6.324 6.324 0 0 0 -2.068-3.692z" fill="#a8602f"/><path d="m52.222 23.775a1.912 1.912 0 0 1 0-2.684l-.671.671a1.91 1.91 0 0 0 0 2.684 1.9 1.9 0 0 0 2.685 0l.672-.671a1.906 1.906 0 0 1 -2.686 0z" fill="#dd9e73"/><path d="m52.616 21.287h1.9a.474.474 0 0 1 .474.474.475.475 0 0 1 -.475.475h-1.9a.474.474 0 0 1 -.474-.474.475.475 0 0 1 .475-.475z" fill="#edb791" transform="matrix(.707 -.707 .707 .707 .305 44.26)"/><path d="m53.287 21.958h1.9a.474.474 0 0 1 .474.474.475.475 0 0 1 -.475.475h-1.9a.474.474 0 0 1 -.474-.474.475.475 0 0 1 .475-.475z" fill="#ffc8a1" transform="matrix(.707 -.707 .707 .707 .027 44.932)"/><path d="m50.439 27.272-.174.174a.953.953 0 0 1 -1.343 0l-.671-.671.671-.671-.671-.671-2.015 2.013a1.9 1.9 0 0 1 -2.685 0 1.91 1.91 0 0 1 0-2.684l2.014-2.014-.671-.671-.672.671-.671-.671a.95.95 0 0 1 0-1.342l.174-.175a1.858 1.858 0 0 1 1.5-.55 6.324 6.324 0 0 1 3.693 2.067 6.324 6.324 0 0 1 2.068 3.691 1.858 1.858 0 0 1 -.547 1.504z" fill="#ffe9ad"/><path d="m44.071 20.292a1.953 1.953 0 0 0 -.346.268l-.174.175a.95.95 0 0 0 0 1.342l.671.671v-1.342a.94.94 0 0 1 -.151-1.114z" fill="#ffc8a1"/><path d="m49.593 26.775h-1.342l.671.671a.953.953 0 0 0 1.343 0l.174-.174a1.963 1.963 0 0 0 .275-.35.941.941 0 0 1 -1.121-.147z" fill="#ffc8a1"/><path d="m48.922 22.077a6.324 6.324 0 0 0 -3.693-2.067 1.257 1.257 0 0 0 -.221-.01 1.876 1.876 0 0 0 -1.283.557l-.174.175a.887.887 0 0 0 -.152.229 1.818 1.818 0 0 1 .937-.29 1.373 1.373 0 0 1 .222.007 6.324 6.324 0 0 1 3.693 2.067 6.323 6.323 0 0 1 2.068 3.692 1.809 1.809 0 0 1 -.276 1.153.911.911 0 0 0 .222-.147l.174-.174a1.856 1.856 0 0 0 .551-1.5 6.324 6.324 0 0 0 -2.068-3.692z" fill="#a8602f"/><path d="m44.222 26.775a1.912 1.912 0 0 1 0-2.684l-.671.671a1.91 1.91 0 0 0 0 2.684 1.9 1.9 0 0 0 2.685 0l.672-.671a1.906 1.906 0 0 1 -2.686 0z" fill="#dd9e73"/><path d="m44.616 24.287h1.9a.474.474 0 0 1 .474.474.475.475 0 0 1 -.475.475h-1.9a.474.474 0 0 1 -.474-.474.475.475 0 0 1 .475-.475z" fill="#edb791" transform="matrix(.707 -.707 .707 .707 -4.161 39.482)"/><path d="m45.287 24.958h1.9a.474.474 0 0 1 .474.474.475.475 0 0 1 -.475.475h-1.9a.474.474 0 0 1 -.474-.474.475.475 0 0 1 .475-.475z" fill="#ffc8a1" transform="matrix(.707 -.707 .707 .707 -4.439 40.153)"/><path d="m10 41h15v4h-15z" fill="#648d2f" transform="matrix(.707 -.707 .707 .707 -25.28 24.969)"/><path d="m10.707 42.707h15v2h-15z" fill="#375416" transform="matrix(.707 -.707 .707 .707 -25.573 25.676)"/><path d="m13 44h15v4h-15z" fill="#648d2f" transform="matrix(.432 -.902 .902 .432 -29.842 44.627)"/><path d="m13.902 45.432h15v2h-15z" fill="#375416" transform="matrix(.432 -.902 .902 .432 -29.719 45.686)"/><path d="m16 46h15v4h-15z" fill="#648d2f" transform="matrix(.432 -.902 .902 .432 -29.942 48.469)"/><path d="m16.902 47.432h15v2h-15z" fill="#375416" transform="matrix(.432 -.902 .902 .432 -29.819 49.528)"/><path d="m22.47 38.49v.01l-6.78 11.5-2.69-1.58 7.24-12.3.1-.1 1.34.78a9.624 9.624 0 0 0 .79 1.69z" fill="#a6eb68"/><path d="m12.794 45.44h14.412v3.12h-14.412z" fill="#d3ea80" transform="matrix(.507 -.862 .862 .507 -30.65 40.396)"/><path d="m28.02 43.25-6.33 10.75-2.69-1.58 6.3-10.7c.16.13.33.25.5.37.09.06.19.12.28.18.14.09.28.18.42.26.08.05.16.09.25.14a9.7 9.7 0 0 0 1.27.58z" fill="#a6eb68"/><path d="m24.18 56.18-.49.82-2.69-1.58 7.13-12.12.09.03a5.274 5.274 0 0 0 .6.2c.23.07.48.14.72.19l1.46.86z" fill="#d3ea80"/><path d="m21.68 36.8-1.34-.78-.1.1-.72 1.224a2 2 0 0 1 .405 2.5l-5.494 9.418 1.259.738 6.78-11.5v-.01a9.624 9.624 0 0 1 -.79-1.69z" fill="#648d2f"/><path d="m25 41.58-2.69-1.58-1.07 1.818a2.437 2.437 0 0 1 .239 2.789l-5.048 8.654 1.259.739z" fill="#84b22e"/><path d="m28.02 43.25a9.7 9.7 0 0 1 -1.27-.58c-.09-.05-.17-.09-.25-.14-.14-.08-.28-.17-.42-.26-.09-.06-.19-.12-.28-.18-.17-.12-.34-.24-.5-.37l-.777 1.319a1.993 1.993 0 0 1 .426 2.613l-4.749 7.47 1.5.878z" fill="#648d2f"/><path d="m29.54 43.72c-.24-.05-.49-.12-.72-.19a5.274 5.274 0 0 1 -.6-.2l-.09-.03-.621 1.055a1.994 1.994 0 0 1 .346 2.505l-5.689 9.245 1.524.9.49-.82 6.82-11.605z" fill="#84b22e"/><rect fill="#ab0f1c" height="4.806" rx=".961" transform="matrix(.707 -.707 .707 .707 -17.062 22.808)" width="4.806" x="16.597" y="29.597"/><rect fill="#a60f1b" height="5" rx="1" width="5" x="20" y="27"/><rect fill="#8f0d18" height="4.806" rx=".961" transform="matrix(.707 -.707 .707 .707 -8.234 24.121)" width="4.806" x="22.597" y="19.597"/><rect fill="#8f0d18" height="4.806" rx=".961" transform="matrix(.707 -.707 .707 .707 -6.87 19.414)" width="4.806" x="17.597" y="15.597"/><rect fill="#8f0d18" height="4.806" rx=".961" transform="matrix(.707 -.707 .707 .707 -10.82 21.879)" width="4.806" x="18.597" y="21.597"/><rect fill="#8f0d18" height="4.806" rx=".961" transform="matrix(.707 -.707 .707 .707 -12.042 14.929)" width="4.806" x="9.597" y="19.597"/><rect fill="#ab0f1c" height="4.806" rx=".961" transform="matrix(.707 -.707 .707 .707 -21.82 17.322)" width="4.806" x="7.597" y="32.597"/><rect fill="#d41323" height="4.806" rx=".961" transform="matrix(.707 -.707 .707 .707 -21.891 23.151)" width="4.806" x="14.597" y="35.597"/><path d="m12.82 39.18-2.18 2.18-3.64-.72 3.64-3.64z" fill="#eb272c"/><path d="m20.36 25.36-.72 3.64-3.64-3.64 2.18-2.18z" fill="#eb272c"/><path d="m24.36 20.36-.72 3.64-3.64-3.64 2.18-2.18z" fill="#eb272c"/><path d="m16 16.64-2.18 2.18-2.18-2.18.72-3.64z" fill="#eb272c"/><path d="m20 11.64-2.18 2.18-2.18-2.18.72-3.64z" fill="#eb272c"/><path d="m17.82 13.82-2.18 2.18-3.64-3.64 3.64-.72z" fill="#de252a"/><path d="m13.82 18.82-2.18 2.18-3.64-3.64 3.64-.72z" fill="#de252a"/><path d="m15 41.36-3.64 3.64-.72-3.64 2.18-2.18z" fill="#de252a"/><path d="m24 24.64-3.64.72-2.18-2.18 2.18-2.18z" fill="#de252a"/><path d="m28 19.64-3.64.72-2.18-2.18 2.18-2.18z" fill="#de252a"/><path d="m19.36 37-4.36 4.36-2.18-2.18-2.18-2.18 2-2h3.36 1.36z" fill="#ff5926"/><path d="m24.36 16-2.18 2.18-2.18 2.18-4.36-4.36 2.18-2.18 2.18-2.18z" fill="#ff552a"/><path d="m16 25.36-2.36-2.36-2-2 2.18-2.18 2.18-2.18 4.36 4.36-2.18 2.18z" fill="#ff8340"/><path d="m20.364 25.364-.728 3.636-2.647-2.647-.989-.989 2.182-2.182z" fill="#eb272c"/><path d="m16 16.636-2.182 2.182-2.182-2.182.728-3.636z" fill="#ff8340"/><path d="m13.818 18.818-2.182 2.182-3.636-3.636 3.636-.728z" fill="#ff5926"/><path d="m24 24.636-3.636.728-2.182-2.182 2.182-2.182 2.647 2.647z" fill="#ff2a30"/><path d="m18.182 23.182-2.182 2.182-2.444-2.444-1.92-1.92 2.182-2.182 2.182-2.182 4.364 4.364z" fill="#ff7626"/><path d="m16.727 23.182a1.029 1.029 0 0 1 -1.454 0l-1.455-1.455a1.029 1.029 0 0 1 0-1.454l2.909-2.909-.727-.728-2.182 2.182-2.182 2.182 1.92 1.92 2.444 2.444 2.182-2.182 2.182-2.182-.728-.727z" fill="#ff552a"/><path d="m13.003 16.849h3.086v1.029h-3.086z" fill="#ff5926" transform="matrix(.707 -.707 .707 .707 -8.018 15.371)"/><path d="m13.091 18.091a2.058 2.058 0 0 1 -2.909 0l-.97-.97-1.212.243 2.909 2.909.727.727 2.182-2.182z" fill="#eb272c"/><path d="m18.094 21.94h3.086v1.029h-3.086z" fill="#d92429" transform="matrix(.707 -.707 .707 .707 -10.126 20.462)"/><path d="m18.909 23.909a2.058 2.058 0 0 0 0 2.909l.97.97-.243 1.212-2.909-2.909-.727-.727 2.182-2.182z" fill="#d92429"/><rect fill="#ff9100" height="4.114" rx=".514" transform="matrix(.707 -.707 .707 .707 -8.345 18.218)" width="1.029" x="17.304" y="17.125"/><rect fill="#ff9100" height="4.114" rx=".514" transform="matrix(.707 -.707 .707 .707 -9.799 17.615)" width="1.029" x="15.849" y="18.579"/><path d="m16.364 22.818-2.182-2.182a.511.511 0 0 0 -.526-.119 1.016 1.016 0 0 0 .162 1.21l1.455 1.455a1.016 1.016 0 0 0 1.21.162.511.511 0 0 0 -.119-.526z" fill="#ff9100"/><path d="m19.364 32.636 3.636.728-2.647 2.647-.989.989-2.182-2.182z" fill="#eb272c"/><path d="m10.636 37 2.182 2.182-2.182 2.182-3.636-.728z" fill="#ff8340"/><path d="m12.818 39.182 2.182 2.182-3.636 3.636-.728-3.636z" fill="#ff5926"/><path d="m18.636 29 .728 3.636-2.182 2.182-2.182-2.182 2.647-2.647z" fill="#ff2a30"/><path d="m17.182 34.818 2.182 2.182-2.444 2.444-1.92 1.92-2.182-2.182-2.182-2.182 4.364-4.364z" fill="#ff7626"/><path d="m17.182 36.273a1.029 1.029 0 0 1 0 1.454l-1.455 1.455a1.029 1.029 0 0 1 -1.454 0l-2.909-2.909-.728.727 2.182 2.182 2.182 2.182 1.92-1.92 2.444-2.444-2.182-2.182-2.182-2.182-.727.728z" fill="#ff552a"/><path d="m10.849 36.912h1.029v3.086h-1.029z" fill="#ff5926" transform="matrix(.707 -.707 .707 .707 -23.863 19.298)"/><path d="m12.091 39.909a2.058 2.058 0 0 1 0 2.909l-.97.97.243 1.212 2.909-2.909.727-.727-2.182-2.182z" fill="#eb272c"/><path d="m15.94 31.821h1.029v3.086h-1.029z" fill="#d92429" transform="matrix(.707 -.707 .707 .707 -18.772 21.407)"/><path d="m17.909 34.091a2.058 2.058 0 0 0 2.909 0l.97-.97 1.212.243-2.909 2.909-.727.727-2.182-2.182z" fill="#d92429"/><rect fill="#ff9100" height="1.029" rx=".514" transform="matrix(.707 -.707 .707 .707 -21.016 19.625)" width="4.114" x="11.125" y="34.668"/><rect fill="#ff9100" height="1.029" rx=".514" transform="matrix(.707 -.707 .707 .707 -21.619 21.08)" width="4.114" x="12.579" y="36.122"/><path d="m16.818 36.636-2.182 2.182a.511.511 0 0 0 -.119.526 1.016 1.016 0 0 0 1.21-.162l1.455-1.455a1.016 1.016 0 0 0 .162-1.21.511.511 0 0 0 -.526.119z" fill="#ff9100"/><path d="m24.364 20.364-.728 3.636-2.647-2.647-.989-.989 2.182-2.182z" fill="#eb272c"/><path d="m20 11.636-2.182 2.182-2.182-2.182.728-3.636z" fill="#ff8340"/><path d="m17.818 13.818-2.182 2.182-3.636-3.636 3.636-.728z" fill="#ff5926"/><path d="m17.003 11.849h3.086v1.029h-3.086z" fill="#ff5926" transform="matrix(.707 -.707 .707 .707 -3.311 16.735)"/><path d="m17.091 13.091a2.058 2.058 0 0 1 -2.909 0l-.97-.97-1.212.243 2.909 2.909.727.727 2.182-2.182z" fill="#eb272c"/><path d="m22.909 18.909a2.058 2.058 0 0 0 0 2.909l.97.97-.243 1.212-2.909-2.909-.727-.727 2.182-2.182z" fill="#d92429"/><rect fill="#ff9100" height="4.114" rx=".514" transform="matrix(.707 -.707 .707 .707 -3.638 19.582)" width="1.029" x="21.304" y="12.125"/><rect fill="#ff9100" height="4.114" rx=".514" transform="matrix(.707 -.707 .707 .707 -5.092 18.979)" width="1.029" x="19.849" y="13.579"/><path d="m20.364 17.818-2.182-2.182a.511.511 0 0 0 -.526-.119 1.016 1.016 0 0 0 .162 1.21l1.455 1.455a1.016 1.016 0 0 0 1.21.162.511.511 0 0 0 -.119-.526z" fill="#ff9100"/><path d="m10 23v3h-3l-2-3z" fill="#ff8340"/><path d="m10 26v3h-5l2-3z" fill="#ff5926"/><path d="m19.64 29h-3.64v-3.64z" fill="#ab0f1c"/><path d="m16 25.36v3.64h-6v-3-3h3.64z" fill="#ff5926"/><path d="m15 24.36v2.64a1 1 0 0 1 -1 1h-2a1 1 0 0 1 -1-1v-4h-1v6h6v-3.64z" fill="#d41323"/><path d="m9 23h1v3h-1z" fill="#eb272c"/><path d="m9 26a2 2 0 0 1 -2 2h-1.333l-.667 1h5v-3z" fill="#f71529"/><path d="m11.5 23a.5.5 0 0 0 0 1h3a.516.516 0 0 0 .117-.023l-.977-.977z" fill="#f70"/><rect fill="#f70" height="1" rx=".5" width="4" x="11" y="25"/><path d="m12 28h2a.988.988 0 0 0 .944-.72.5.5 0 0 0 -.444-.28h-3a.5.5 0 0 0 -.444.28.988.988 0 0 0 .944.72z" fill="#f70"/><path d="m10 23h1v3h-1z" fill="#ff2a30"/><path d="m19 32 2 3h-3.64-1.36v-3z" fill="#eb272c"/><path d="m10 29v3h-3l-2-3z" fill="#ff8340"/><path d="m10 32v3h-5l2-3z" fill="#ff5926"/><path d="m21 29-2 3h-3v-3h3.64z" fill="#ff2a30"/><path d="m16 32v3h-3.36-2.64v-3-3h6z" fill="#ff5926"/><path d="m15 33a1 1 0 0 1 -1 1h-2a1 1 0 0 1 -1-1v-4h-1v6h6v-6h-1z" fill="#d41323"/><path d="m9 29h1v3h-1z" fill="#eb272c"/><path d="m9 32a2 2 0 0 1 -2 2h-1.333l-.667 1h5v-3z" fill="#f71529"/><path d="m16 29h1v3h-1z" fill="#d92429"/><path d="m17 32a2 2 0 0 0 2 2h1.333l.667 1h-5v-3z" fill="#ab0f1c"/><rect fill="#f70" height="1" rx=".5" width="4" x="11" y="29"/><rect fill="#f70" height="1" rx=".5" width="4" x="11" y="31"/><path d="m14.5 33h-3a.5.5 0 0 0 -.444.28.988.988 0 0 0 .944.72h2a.988.988 0 0 0 .944-.72.5.5 0 0 0 -.444-.28z" fill="#f70"/><g fill="#689441"><ellipse cx="15.5" cy="27.5" rx="1.5" ry=".5"/><ellipse cx="8" cy="27.5" rx=".5" ry="1" transform="matrix(.928 -.371 .371 .928 -9.641 4.938)"/><ellipse cx="17" cy="15.5" rx=".5" ry="1" transform="matrix(.928 -.371 .371 .928 -4.541 7.422)"/><ellipse cx="19" cy="12.5" rx="1" ry=".5" transform="matrix(.371 -.928 .928 .371 .338 25.499)"/><ellipse cx="19" cy="19.5" rx="1" ry=".5" transform="matrix(.371 -.928 .928 .371 -6.162 29.899)"/><ellipse cx="22" cy="22.5" rx="1" ry=".5" transform="matrix(.371 -.928 .928 .371 -7.061 34.57)"/><ellipse cx="9.5" cy="32.5" rx="1.5" ry=".5" transform="matrix(.707 -.707 .707 .707 -20.198 16.237)"/><ellipse cx="16.5" cy="32.5" rx="1.5" ry=".5" transform="matrix(.707 -.707 .707 .707 -18.148 21.186)"/><ellipse cx="13.5" cy="39.5" rx=".5" ry="1.5" transform="matrix(.707 -.707 .707 .707 -23.977 21.115)"/><ellipse cx="13.5" cy="23.5" rx=".5" ry="1.5"/><ellipse cx="12.5" cy="21.5" rx="1.5" ry=".5" transform="matrix(.707 -.707 .707 .707 -11.542 15.136)"/></g><path d="m21.21 35.15a11.01 11.01 0 0 1 10.79-13.15 11.265 11.265 0 0 1 2.41.27 4.013 4.013 0 0 1 1-1.31 3.937 3.937 0 0 1 2.59-.96 3.979 3.979 0 0 1 2.97 6.65 10.97 10.97 0 0 1 1.25 10.42 11.139 11.139 0 0 1 -3.95 4.97 10.9 10.9 0 0 1 -6.27 1.96 11.041 11.041 0 0 1 -2.46-.28c-.24-.06-.48-.12-.72-.19-.2-.06-.4-.12-.6-.2l-.09-.03a.37.37 0 0 1 -.11-.05 11.224 11.224 0 0 1 -1.27-.58c-.09-.05-.17-.09-.25-.14-.14-.08-.28-.17-.42-.26-.09-.06-.19-.12-.28-.18-.17-.12-.34-.24-.5-.37a10.923 10.923 0 0 1 -2.83-3.22v-.01a9.624 9.624 0 0 1 -.79-1.69 10.079 10.079 0 0 1 -.47-1.65zm15.79-3.15a6 6 0 1 0 -6 6 6 6 0 0 0 6-6z" fill="#fff0d1"/><circle cx="31.03" cy="32" fill="none" r="5.5"/><path d="m31.03 26a6 6 0 1 0 6 6 6 6 0 0 0 -6-6zm0 11.5a5.5 5.5 0 1 1 5.5-5.5 5.506 5.506 0 0 1 -5.5 5.5z" fill="#fdf9dc"/><path d="m41 26.65a3.986 3.986 0 0 0 -5.56-5.69 4.013 4.013 0 0 0 -1 1.31 11.265 11.265 0 0 0 -2.41-.27 11.01 11.01 0 0 0 -10.79 13.15 10.079 10.079 0 0 0 .47 1.65 9.624 9.624 0 0 0 .79 1.69v.01a10.923 10.923 0 0 0 2.83 3.22c.16.13.33.25.5.37.09.06.19.12.28.18.14.09.28.18.42.26.08.05.16.09.25.14a11.224 11.224 0 0 0 1.27.58.37.37 0 0 0 .11.05l.09.03c.2.08.4.14.6.2.24.07.48.13.72.19a11.041 11.041 0 0 0 2.46.28 10.9 10.9 0 0 0 6.27-1.96 11.139 11.139 0 0 0 3.95-4.97 10.97 10.97 0 0 0 -1.25-10.42zm.785 10.238a10.639 10.639 0 0 1 -3.772 4.743 10.49 10.49 0 0 1 -8.323 1.6c-.233-.057-.467-.117-.719-.189-.179-.055-.357-.107-.535-.179l-.206-.083a10.564 10.564 0 0 1 -1.208-.551l-.087-.047c-.049-.027-.095-.051-.157-.088-.132-.076-.264-.161-.392-.244l-.267-.171c-.161-.115-.322-.228-.486-.36a10.488 10.488 0 0 1 -2.633-2.955l-.07-.129a9.039 9.039 0 0 1 -.752-1.612 9.59 9.59 0 0 1 -.447-1.567 10.357 10.357 0 0 1 -.201-2.056 10.512 10.512 0 0 1 10.5-10.5 10.674 10.674 0 0 1 2.3.258l.387.084.171-.356a3.549 3.549 0 0 1 .877-1.149 3.447 3.447 0 0 1 2.265-.837 3.5 3.5 0 0 1 3.5 3.5 3.465 3.465 0 0 1 -.9 2.316l-.268.3.232.327a10.4 10.4 0 0 1 1.936 6.057 10.513 10.513 0 0 1 -.745 3.888z" fill="#dd9d56"/><circle cx="31" cy="32" fill="#fcd83c" r="6"/><path d="m31 26a6 6 0 1 0 6 6 6 6 0 0 0 -6-6zm0 9a5.4 5.4 0 0 1 -5-5c0-2.207 2.242-4 5-4s5 1.793 5 4a5.4 5.4 0 0 1 -5 5z" fill="#f6a635"/><ellipse cx="33" cy="30" fill="#ffef96" rx="1.455" ry="2.426" transform="matrix(.707 -.707 .707 .707 -11.548 32.121)"/><path d="m27.059 28.733a.688.688 0 0 0 .146.772 1.569 1.569 0 0 0 .556.314 2.327 2.327 0 0 0 1 .176.3.3 0 0 0 .139-.037.175.175 0 0 0 .063-.155l.037-1.267a.53.53 0 0 0 -.023-.213.548.548 0 0 0 -.383-.275 1.3 1.3 0 0 0 -1.535.685z" fill="#ffef96"/><path d="m36.477 27.994a6.674 6.674 0 0 1 -2.07-1.858 5.8 5.8 0 0 0 -1.269-1.5c-.59-.4-.986-.112-1.614-.041-1.265.142-2.768-.49-3.9.361-.725.546-1 1.56-1.645 2.208-.742.743-1.859.9-2.682 1.537a3.178 3.178 0 0 0 -1.121 2.949 17.842 17.842 0 0 0 .993 2.617c.369 1.122.347 2.42 1.023 3.368a4.361 4.361 0 0 0 2.1 1.389 9.625 9.625 0 0 0 2.385.625c1.062.111 2.138-.05 3.2.089.987.13 1.931.517 2.918.651a2.98 2.98 0 0 0 2.751-.839c.654-.8.663-1.953.931-2.968a28.259 28.259 0 0 1 1.259-3.02 4.036 4.036 0 0 0 .117-3.195c-.636-1.294-2.164-1.682-3.376-2.373zm-5.477 10.006a6 6 0 1 1 6-6 6 6 0 0 1 -6 6z" fill="#fffae8"/><ellipse cx="37.559" cy="24.695" fill="#f6fafd" rx="1.642" ry="2.286" transform="matrix(.707 -.707 .707 .707 -6.458 33.806)"/><ellipse cx="28.557" cy="31.708" fill="#f6fafd" rx=".825" ry="1.148" transform="matrix(.707 -.707 .707 .707 -14.058 29.494)"/><ellipse cx="30.302" cy="33.208" fill="#f6fafd" rx=".413" ry=".574" transform="matrix(.707 -.707 .707 .707 -14.607 31.169)"/><path d="m44.58 34.057a4.456 4.456 0 0 0 -1.422-1.107 8.783 8.783 0 0 0 -3.158-.233c-1.607-.063-3.151-.754-4.759-.715a1.581 1.581 0 0 0 -.712.145 1.125 1.125 0 0 0 -.507 1.2 2.126 2.126 0 0 0 .753 1.153c1.129.973 2.718 1.239 4 2.015a20.228 20.228 0 0 1 2.522 2.117 4.85 4.85 0 0 0 2.943 1.368 1.388 1.388 0 0 0 .891-.24 1.531 1.531 0 0 0 .438-.723 5.449 5.449 0 0 0 .341-2.911 5.263 5.263 0 0 0 -1.33-2.069z" fill="#eb272c"/><path d="m45.569 38.037a1.523 1.523 0 0 1 -.438.723 1.388 1.388 0 0 1 -.891.24 4.85 4.85 0 0 1 -2.946-1.364 20.228 20.228 0 0 0 -2.522-2.117c-1.279-.776-2.868-1.042-4-2.015a2.354 2.354 0 0 1 -.666-.881 1.24 1.24 0 0 0 -.087.728 2.126 2.126 0 0 0 .753 1.153c1.129.973 2.718 1.239 4 2.015a20.228 20.228 0 0 1 2.522 2.117 4.85 4.85 0 0 0 2.946 1.364 1.388 1.388 0 0 0 .891-.24 1.523 1.523 0 0 0 .438-.723 6.058 6.058 0 0 0 .382-2.587 7.952 7.952 0 0 1 -.382 1.587z" fill="#ab0f1c"/><path d="m43.56 33.987a1.918 1.918 0 0 0 -1.666-.185.492.492 0 0 0 -.393.4.686.686 0 0 0 .166.437 5.14 5.14 0 0 0 1.1 1.177c.3.221 1.683.929 1.729.072a2.467 2.467 0 0 0 -.936-1.901z" fill="#ff5c60"/><path d="m36.962 33.122a2.463 2.463 0 0 0 -1.215-.073c-.12.031-.252.1-.247.2.005.083.1.142.183.187a4.163 4.163 0 0 0 2.027.564c.221-.006.731-.035.786-.273.04-.173-.262-.256-.415-.3-.364-.12-.747-.208-1.119-.305z" fill="#ff5c60"/><ellipse cx="44.302" cy="37.208" fill="#f6fafd" rx=".413" ry=".574" transform="matrix(.707 -.707 .707 .707 -13.333 42.244)"/><path d="m38.772 36.519c-.074-.045-.153-.083-.229-.125-.019.062-.045.122-.062.185-.107.407-.174.836-.257 1.257.707.517 1.326 1.15 1.988 1.727a10.015 10.015 0 0 0 .824-1.158 15.831 15.831 0 0 0 -2.264-1.886z" fill="#d9c18d"/><path d="m34.006 33.022a1.282 1.282 0 0 0 -.477.125 1.125 1.125 0 0 0 -.507 1.2c.008.04.026.076.037.115a5.462 5.462 0 0 0 1.084-.757 1.59 1.59 0 0 1 -.121-.358 1.248 1.248 0 0 1 -.016-.325z" fill="#fca000"/><path d="m41.294 38.636-.014-.012c-.083-.071-.162-.146-.244-.219a10.015 10.015 0 0 1 -.824 1.158c.028.024.054.05.082.073.081.07.166.138.25.206l.051.042a10.442 10.442 0 0 0 .821-1.147c-.04-.037-.082-.066-.122-.101z" fill="#c28036"/><path d="m36.02 35.278a5.488 5.488 0 0 1 -1.245-.774 2.461 2.461 0 0 1 -.632-.795 5.462 5.462 0 0 1 -1.084.757 2.212 2.212 0 0 0 .716 1.038 5.662 5.662 0 0 0 1.363.831 6.037 6.037 0 0 0 .882-1.057z" fill="#e88800"/><path d="m35.138 36.335a25.039 25.039 0 0 1 2.634 1.184c.158.1.3.208.452.317.083-.421.15-.85.257-1.257.017-.063.043-.123.062-.185-.8-.441-1.7-.726-2.523-1.116a6.037 6.037 0 0 1 -.882 1.057z" fill="#eddaaf"/></g></svg>