<svg width="35" height="35" viewBox="0 0 35 35" fill="none" xmlns="http://www.w3.org/2000/svg">
<path d="M31.7996 14.6439H30.625V14.5834H17.5V20.4167H25.7417C24.5393 23.8125 21.3084 26.2501 17.5 26.2501C12.6678 26.2501 8.74996 22.3323 8.74996 17.5001C8.74996 12.6679 12.6678 8.75008 17.5 8.75008C19.7305 8.75008 21.7598 9.59154 23.3049 10.966L27.4298 6.84112C24.8252 4.41373 21.3412 2.91675 17.5 2.91675C9.44631 2.91675 2.91663 9.44643 2.91663 17.5001C2.91663 25.5537 9.44631 32.0834 17.5 32.0834C25.5536 32.0834 32.0833 25.5537 32.0833 17.5001C32.0833 16.5223 31.9827 15.5678 31.7996 14.6439Z" fill="#FFC107"/>
<path d="M4.59814 10.7123L9.3895 14.2261C10.686 11.0163 13.8257 8.75008 17.5 8.75008C19.7305 8.75008 21.7598 9.59154 23.3049 10.966L27.4298 6.84112C24.8252 4.41373 21.3413 2.91675 17.5 2.91675C11.8986 2.91675 7.04085 6.07914 4.59814 10.7123Z" fill="#FF3D00"/>
<path d="M17.4999 32.0836C21.2668 32.0836 24.6895 30.642 27.2773 28.2978L22.7638 24.4784C21.2507 25.6298 19.4013 26.2523 17.4999 26.2503C13.7068 26.2503 10.486 23.8316 9.27271 20.4563L4.51709 24.1204C6.93063 28.8432 11.8321 32.0836 17.4999 32.0836Z" fill="#4CAF50"/>
<path d="M31.7997 14.6438H30.625V14.5833H17.5V20.4166H25.7418C25.1666 22.0327 24.1306 23.4449 22.7617 24.4788L22.7639 24.4773L27.2774 28.2967C26.958 28.5869 32.0833 24.7916 32.0833 17.4999C32.0833 16.5221 31.9827 15.5676 31.7997 14.6438Z" fill="#1976D2"/>
</svg>
