<?xml version="1.0" encoding="iso-8859-1"?>
<!-- Generator: Adobe Illustrator 19.0.0, SVG Export Plug-In . SVG Version: 6.00 Build 0)  -->
<svg version="1.1" id="Layer_1" xmlns="http://www.w3.org/2000/svg" xmlns:xlink="http://www.w3.org/1999/xlink" x="0px" y="0px"
	 viewBox="0 0 512 512" style="enable-background:new 0 0 512 512;" xml:space="preserve">
<path style="fill:#EF4D40;" d="M370.257,10.779H141.743c-42.564,0-77.069,34.506-77.069,77.069v294.804h382.653V87.848
	C447.326,45.285,412.821,10.779,370.257,10.779z"/>
<g>
	<rect x="107.789" y="88.118" style="fill:#75D5FF;" width="148.211" height="134.737"/>
	<rect x="256" y="88.118" style="fill:#75D5FF;" width="148.211" height="134.737"/>
</g>
<g>
	<circle style="fill:#FFCF51;" cx="134.737" cy="313.667" r="26.947"/>
	<circle style="fill:#FFCF51;" cx="377.263" cy="313.667" r="26.947"/>
</g>
<rect x="35.032" y="382.653" style="fill:#ECF0F1;" width="441.937" height="53.895"/>
<g>
	<path style="fill:#A38671;" d="M127.192,501.221H82.998c-10.12,0-18.324-8.204-18.324-18.324v-46.349h80.842v46.349
		C145.516,493.017,137.312,501.221,127.192,501.221z"/>
	<path style="fill:#A38671;" d="M429.002,501.221h-44.194c-10.12,0-18.324-8.204-18.324-18.324v-46.349h80.842v46.349
		C447.326,493.017,439.122,501.221,429.002,501.221z"/>
	<path style="fill:#A38671;" d="M22.995,183.96h41.679V92.339H22.995c-6.747,0-12.216,5.469-12.216,12.217v67.189
		C10.779,178.491,16.248,183.96,22.995,183.96z"/>
	<path style="fill:#A38671;" d="M447.326,183.96h41.679c6.747,0,12.216-5.469,12.216-12.216v-67.188
		c0-6.747-5.469-12.216-12.216-12.216h-41.679V183.96z"/>
</g>
<g>
	<path style="fill:#231F20;" d="M404.211,77.339H107.789c-5.953,0-10.779,4.827-10.779,10.779v134.737
		c0,5.952,4.826,10.779,10.779,10.779h296.421c5.953,0,10.779-4.827,10.779-10.779V88.118
		C414.989,82.166,410.164,77.339,404.211,77.339z M118.568,98.897h126.653v113.179h-69.337l22.271-22.271
		c4.209-4.209,4.209-11.034,0-15.245c-4.209-4.208-11.034-4.208-15.244,0l-37.515,37.516h-26.829V98.897z M393.432,212.076h-53.64
		l29.97-29.97c4.209-4.209,4.209-11.034,0-15.245c-4.209-4.208-11.034-4.208-15.245,0l-45.213,45.213h-42.524V98.896h126.653
		V212.076z"/>
	<path style="fill:#231F20;" d="M134.737,275.941c-20.802,0-37.726,16.924-37.726,37.726s16.924,37.726,37.726,37.726
		s37.726-16.924,37.726-37.726S155.539,275.941,134.737,275.941z M134.737,329.836c-8.915,0-16.168-7.253-16.168-16.168
		s7.253-16.168,16.168-16.168s16.168,7.253,16.168,16.168S143.652,329.836,134.737,329.836z"/>
	<path style="fill:#231F20;" d="M377.263,275.941c-20.802,0-37.726,16.924-37.726,37.726s16.924,37.726,37.726,37.726
		c20.802,0,37.726-16.924,37.726-37.726S398.065,275.941,377.263,275.941z M377.263,329.836c-8.915,0-16.168-7.253-16.168-16.168
		s7.253-16.168,16.168-16.168c8.915,0,16.168,7.253,16.168,16.168S386.178,329.836,377.263,329.836z"/>
	<path style="fill:#231F20;" d="M303.966,311.512h-95.933c-5.953,0-10.779,4.827-10.779,10.779c0,5.952,4.826,10.779,10.779,10.779
		h95.933c5.953,0,10.779-4.827,10.779-10.779C314.745,316.338,309.92,311.512,303.966,311.512z"/>
	<path style="fill:#231F20;" d="M316.901,268.396H195.099c-5.953,0-10.779,4.827-10.779,10.779c0,5.952,4.826,10.779,10.779,10.779
		h121.802c5.953,0,10.779-4.827,10.779-10.779C327.68,273.223,322.854,268.396,316.901,268.396z"/>
	<path style="fill:#231F20;" d="M489.005,81.56h-31.15C454.617,36.047,416.58,0,370.257,0H141.743
		C95.42,0,57.383,36.047,54.145,81.56h-31.15C10.315,81.56,0,91.875,0,104.556v67.188c0,12.679,10.315,22.995,22.995,22.995h30.9
		v177.135H35.032c-5.953,0-10.779,4.827-10.779,10.779v53.895c0,5.952,4.826,10.779,10.779,10.779h18.863v35.571
		C53.895,498.945,66.95,512,82.998,512h44.194c16.048,0,29.103-13.055,29.103-29.103v-35.571h199.411v35.571
		c0,16.048,13.055,29.103,29.103,29.103h44.194c16.048,0,29.103-13.055,29.103-29.103v-35.571h18.863
		c5.953,0,10.779-4.827,10.779-10.779v-53.895c0-5.952-4.826-10.779-10.779-10.779h-18.863V194.739h30.9
		c12.679,0,22.995-10.315,22.995-22.995v-67.188C512,91.875,501.685,81.56,489.005,81.56z M22.995,173.181
		c-0.792,0-1.437-0.645-1.437-1.437v-67.188c0-0.792,0.645-1.438,1.437-1.438h30.9v70.063H22.995z M134.737,482.897
		c0,4.16-3.385,7.545-7.545,7.545H82.998c-4.161,0-7.545-3.386-7.545-7.545v-35.571h59.284V482.897z M436.547,482.897
		c0,4.16-3.385,7.545-7.545,7.545h-44.194c-4.161,0-7.545-3.386-7.545-7.545v-35.571h59.284V482.897z M466.189,425.768H45.811
		v-32.337h420.379V425.768z M75.453,371.874V87.848c0-36.552,29.738-66.291,66.291-66.291h228.514
		c36.552,0,66.291,29.738,66.291,66.291v284.025H75.453z M490.442,171.744c0,0.792-0.645,1.437-1.437,1.437h-30.9v-70.063h30.9
		c0.792,0,1.437,0.646,1.437,1.438V171.744z"/>
	<path style="fill:#231F20;" d="M216.558,166.938c2.758,0,5.518-1.053,7.622-3.157l1.078-1.078c4.209-4.209,4.209-11.034,0-15.245
		c-4.209-4.208-11.034-4.208-15.245,0l-1.078,1.078c-4.209,4.209-4.209,11.034,0,15.245
		C211.04,165.885,213.799,166.938,216.558,166.938z"/>
</g>
<g>
</g>
<g>
</g>
<g>
</g>
<g>
</g>
<g>
</g>
<g>
</g>
<g>
</g>
<g>
</g>
<g>
</g>
<g>
</g>
<g>
</g>
<g>
</g>
<g>
</g>
<g>
</g>
<g>
</g>
</svg>
