<svg id="ICON" enable-background="new 0 0 100 100" viewBox="0 0 100 100" xmlns="http://www.w3.org/2000/svg"><g fill="#eab215"><path d="m88.6 55.5h5.6c.2-1.3.3-2.7.4-4.1h-5.7c0 1.4-.1 2.7-.3 4.1z"/><path d="m87 62.6h5.4c.6-1.7 1.1-3.4 1.4-5.2h-5.6c-.2 1.8-.7 3.6-1.2 5.2z"/><path d="m84.6 68.7h5c.7-1.3 1.4-2.7 2-4.1h-5.3c-.5 1.4-1 2.8-1.7 4.1z"/><path d="m81 74.8h4.4c1.1-1.3 2.1-2.7 3-4.1h-4.8c-.8 1.4-1.7 2.8-2.6 4.1z"/><path d="m83.6 76.8h-4.1c-1.5 1.9-3.1 3.6-4.9 5.2h3.1c2.1-1.6 4.1-3.3 5.9-5.2z"/><path d="m64.9 88.4c3.5-1.1 6.7-2.6 9.8-4.5h-2.5c-2.3 1.8-4.7 3.3-7.3 4.5z"/><path d="m88.5 44.2c.2 1.7.4 3.4.4 5.2h5.7c0-1.8-.2-3.5-.4-5.2z"/><path d="m93.8 42.2c-.3-1.3-.6-2.5-1-3.8h-5.5c.3 1.2.6 2.5.9 3.8z"/><path d="m84.6 31.3c.8 1.7 1.5 3.4 2.1 5.2h5.3c-.7-1.8-1.5-3.5-2.4-5.2z"/><path d="m81 25.2c.9 1.3 1.8 2.7 2.6 4.1h4.8c-.9-1.4-1.9-2.8-3-4.1z"/><path d="m77.7 18.1h-3.1c1.8 1.6 3.4 3.3 4.9 5.2h4.1c-1.8-2-3.8-3.7-5.9-5.2z"/><path d="m72.2 16.1h2.5c-3-1.8-6.3-3.4-9.8-4.5 2.6 1.2 5 2.7 7.3 4.5z"/></g><path d="m48 90.7c7.6-.3 14.8-2.8 20.7-6.8.9-.6 1.9-1.3 2.8-2 2-1.6 3.8-3.3 5.4-5.2.6-.6 1.1-1.3 1.6-2 1-1.3 1.9-2.7 2.8-4.1.4-.7.8-1.3 1.1-2 .7-1.3 1.3-2.7 1.8-4.1.3-.7.5-1.3.7-2 .5-1.7 1-3.4 1.3-5.2.1-.7.2-1.3.3-2 .2-1.3.3-2.7.4-4.1 0-.5 0-.9 0-1.4 0-.2 0-.4 0-.6 0-1.8-.2-3.5-.4-5.2-.1-.7-.2-1.3-.3-2-.2-1.3-.6-2.5-.9-3.8-.2-.7-.4-1.3-.6-2-.6-1.8-1.4-3.5-2.2-5.2-.3-.7-.7-1.4-1.1-2-.8-1.4-1.8-2.8-2.8-4.1-.5-.7-1.1-1.4-1.6-2-1.6-1.9-3.4-3.6-5.4-5.2-.9-.7-1.8-1.4-2.8-2-6-4-13.1-6.5-20.7-6.8-.6 0-1.2 0-1.8 0-22.3.3-40.4 18-40.9 40.1v1s0 .7 0 1v1c1.2 21 19.7 37.8 42.6 38.7zm-1.8-75.6c19.3 0 34.9 15.7 34.9 34.9s-15.7 34.9-34.9 34.9-35-15.6-35-34.9 15.7-34.9 35-34.9z" fill="#ffde50"/><path d="m46.2 82.9c18.2 0 32.9-14.8 32.9-32.9s-14.8-32.9-32.9-32.9c-18.2 0-33 14.8-33 32.9s14.8 32.9 33 32.9zm0-28.9c-7 0-12.7-5.7-12.7-12.7 0-5.5 3.5-10.4 8.7-12.1v-2.4c0-2.2 1.8-4 4-4s4 1.8 4 4v2.4c5.2 1.7 8.7 6.6 8.7 12.1 0 2.2-1.8 4-4 4s-4-1.8-4-4c0-2.6-2.1-4.7-4.7-4.7s-4.7 2.1-4.7 4.7 2.1 4.7 4.7 4.7c7 0 12.7 5.7 12.7 12.7 0 5.5-3.5 10.4-8.7 12.1v2.4c0 2.2-1.8 4-4 4s-4-1.8-4-4v-2.4c-5.2-1.7-8.7-6.6-8.7-12.1 0-2.2 1.8-4 4-4s4 1.8 4 4c0 2.6 2.1 4.7 4.7 4.7s4.7-2.1 4.7-4.7-2.1-4.7-4.7-4.7z" fill="#eab215"/><path d="m46.2 65.4c-3.7 0-6.7-3-6.7-6.7 0-1.1-.9-2-2-2s-2 .9-2 2c0 4.9 3.3 9.1 8 10.4.4.1.7.5.7 1v3.1c0 1.1.9 2 2 2s2-.9 2-2v-3.1c0-.5.3-.9.8-1 4.7-1.3 8-5.5 8-10.4 0-5.9-4.8-10.7-10.7-10.7-3.7 0-6.7-3-6.7-6.7s3-6.7 6.7-6.7 6.7 3 6.7 6.7c0 1.1.9 2 2 2s2-.9 2-2c0-4.9-3.3-9.1-8-10.4-.4-.1-.8-.5-.8-1v-3.1c0-1.1-.9-2-2-2s-2 .9-2 2v3.2c0 .5-.3.8-.7 1-4.7 1.2-8 5.5-8 10.4 0 5.9 4.8 10.7 10.7 10.7 3.7 0 6.7 3 6.7 6.7 0 3.6-3 6.6-6.7 6.6z" fill="#fff"/><path d="m9.5 19.8c.6 0 1-.4 1-1v-1.8h1.8c.6 0 1-.4 1-1s-.4-1-1-1h-1.8v-1.8c0-.6-.4-1-1-1s-1 .4-1 1v1.8h-1.8c-.6 0-1 .4-1 1s.4 1 1 1h1.7v1.8c.1.6.5 1 1.1 1z"/><path d="m84.6 88.2h-1.8v-1.8c0-.6-.4-1-1-1s-1 .4-1 1v1.8h-1.8c-.6 0-1 .4-1 1s.4 1 1 1h1.8v1.8c0 .6.4 1 1 1s1-.4 1-1v-1.8h1.8c.6 0 1-.4 1-1s-.4-1-1-1z"/><g fill="#542437"><path d="m96.2 44.2c-.1-.7-.2-1.3-.3-2-.3-1.3-.6-2.5-.9-3.8-.2-.7-.4-1.3-.7-2-.7-1.8-1.4-3.5-2.3-5.2-.4-.7-.7-1.3-1.1-2-.8-1.4-1.8-2.8-2.8-4.1-.5-.7-1.1-1.4-1.7-2-1.6-1.9-3.4-3.6-5.4-5.2-.9-.7-1.7-1.4-2.6-2-7.9-5.4-17.7-8.7-28.4-8.7-.7 0-1.3 0-2 0-.6 0-1.2 0-1.8 0-22.5 0-41 17.5-42.6 39.5 0 .3 0 .7-.1 1 0 .7-.1 1.5-.1 2.2s0 1.5.1 2.2c0 .3 0 .7.1 1 1.7 22.1 20.1 39.5 42.6 39.5h1.8 2c10.7 0 20.5-3.3 28.3-8.8.9-.6 1.8-1.3 2.6-2 1.9-1.6 3.7-3.3 5.4-5.2.6-.6 1.1-1.3 1.7-2 1-1.3 2-2.7 2.8-4.1.4-.7.8-1.3 1.1-2 .7-1.3 1.3-2.7 1.9-4.1.3-.7.5-1.3.7-2 .6-1.7 1-3.4 1.4-5.2.1-.7.2-1.3.3-2 .2-1.3.3-2.7.4-4.1 0-.5 0-.9 0-1.4 0-.2 0-.4 0-.6 0-1.5-.2-3.2-.4-4.9zm-2.4-2h-5.6c-.2-1.3-.5-2.5-.9-3.8h5.5c.4 1.3.7 2.6 1 3.8zm-1.7-5.7h-5.3c-.6-1.8-1.3-3.5-2.1-5.2h5c.9 1.7 1.7 3.4 2.4 5.2zm-6.7-11.3c1.1 1.3 2.1 2.7 3 4.1h-4.8c-.8-1.4-1.6-2.8-2.6-4.1zm-1.8-2h-4.1c-1.5-1.9-3.1-3.6-4.9-5.2h3.1c2.1 1.6 4.1 3.3 5.9 5.2zm-8.9-7.1h-2.5c-2.2-1.7-4.7-3.2-7.2-4.5 3.4 1.1 6.7 2.6 9.7 4.5zm-26.7 74.6c-22.9-.9-41.4-17.7-42.6-38.6 0-.3 0-.7 0-1s0-.7 0-1 0-.7 0-1c.5-22.2 18.6-39.9 40.8-39.9h1.8c7.6.3 14.8 2.8 20.7 6.8.9.6 1.9 1.3 2.8 2 2 1.6 3.8 3.3 5.4 5.2.6.6 1.1 1.3 1.6 2 1 1.3 1.9 2.7 2.8 4.1.4.6.8 1.3 1.1 2 .9 1.7 1.6 3.4 2.2 5.2.2.7.4 1.3.6 2 .4 1.2.7 2.5.9 3.8.1.7.3 1.3.3 2 .2 1.7.4 3.4.4 5.2v.6 1.4c-.1 1.4-.2 2.8-.4 4.1-.1.7-.2 1.3-.3 2-.3 1.8-.8 3.5-1.3 5.2-.2.7-.5 1.3-.7 2-.5 1.4-1.1 2.7-1.8 4.1-.3.7-.7 1.3-1.1 2-.8 1.4-1.8 2.8-2.8 4.1-.5.7-1.1 1.4-1.6 2-1.6 1.9-3.4 3.6-5.4 5.2-.9.7-1.8 1.4-2.8 2-5.8 3.7-13 6.2-20.6 6.5zm16.9-2.3c2.6-1.3 5-2.8 7.2-4.5h2.5c-2.9 1.9-6.2 3.4-9.7 4.5zm12.8-6.5h-3.1c1.8-1.6 3.4-3.3 4.9-5.2h4.1c-1.8 2-3.8 3.7-5.9 5.2zm7.7-7.1h-4.4c.9-1.3 1.8-2.7 2.6-4.1h4.8c-.9 1.4-1.9 2.8-3 4.1zm4.3-6.1h-5c.6-1.3 1.2-2.7 1.7-4.1h5.3c-.6 1.4-1.3 2.8-2 4.1zm2.7-6.1h-5.4c.5-1.7.9-3.4 1.3-5.2h5.6c-.4 1.8-.9 3.6-1.5 5.2zm1.8-7.1h-5.6c.2-1.3.3-2.7.3-4.1h5.7c-.1 1.4-.2 2.7-.4 4.1zm-5.3-6.1c0-1.8-.2-3.5-.4-5.2h5.6c.3 1.7.4 3.4.4 5.2z"/><path d="m81.1 50c0-19.2-15.7-34.9-34.9-34.9s-34.9 15.7-34.9 34.9 15.7 34.9 34.9 34.9 34.9-15.7 34.9-34.9zm-34.9 32.9c-18.2 0-33-14.8-33-32.9s14.8-32.9 33-32.9 32.9 14.8 32.9 32.9-14.8 32.9-32.9 32.9z"/><path d="m46.2 36.5c2.6 0 4.7 2.1 4.7 4.7 0 2.2 1.8 4 4 4s4-1.8 4-4c0-5.5-3.6-10.4-8.7-12.1v-2.4c0-2.2-1.8-4-4-4s-4 1.8-4 4v2.4c-5.2 1.7-8.7 6.6-8.7 12.1 0 7 5.7 12.7 12.7 12.7 2.6 0 4.7 2.1 4.7 4.7s-2.1 4.7-4.7 4.7-4.7-2.1-4.7-4.7c0-2.2-1.8-4-4-4s-4 1.8-4 4c0 5.5 3.6 10.4 8.7 12.1v2.4c0 2.2 1.8 4 4 4s4-1.8 4-4v-2.4c5.2-1.7 8.7-6.6 8.7-12.1 0-7-5.7-12.7-12.7-12.7-2.6 0-4.7-2.1-4.7-4.7-.1-2.5 2-4.7 4.7-4.7zm0 11.5c5.9 0 10.7 4.8 10.7 10.7 0 4.9-3.3 9.1-8 10.4-.4.1-.7.5-.7 1v3.1c0 1.1-.9 2-2 2s-2-.9-2-2v-3.2c0-.5-.3-.9-.7-1-4.7-1.2-8-5.5-8-10.4 0-1.1.9-2 2-2s2 .9 2 2c0 3.7 3 6.7 6.7 6.7s6.7-3 6.7-6.7-3-6.7-6.7-6.7c-5.9 0-10.7-4.8-10.7-10.7 0-4.8 3.3-9.1 8-10.4.4-.1.7-.5.7-1v-3.1c0-1.1.9-2 2-2s2 .9 2 2v3.3c0 .5.3.9.7 1 4.7 1.2 8 5.5 8 10.4 0 1.1-.9 2-2 2s-2-.9-2-2c0-3.7-3-6.7-6.7-6.7s-6.7 3-6.7 6.7c-.1 3.6 2.9 6.6 6.7 6.6z"/></g><path d="m9.5 12.3c-.6 0-1 .4-1 1v1.8h-1.8c-.6 0-1 .4-1 1s.4 1 1 1h1.7v1.8c0 .6.4 1 1 1s1-.4 1-1v-1.8h1.8c.6 0 1-.4 1-1s-.4-1-1-1h-1.8v-1.8c.1-.5-.4-1-.9-1z" fill="#eab215"/><path d="m84.6 88.2h-1.8v-1.8c0-.6-.4-1-1-1s-1 .4-1 1v1.8h-1.8c-.6 0-1 .4-1 1s.4 1 1 1h1.8v1.8c0 .6.4 1 1 1s1-.4 1-1v-1.8h1.8c.6 0 1-.4 1-1s-.4-1-1-1z" fill="#eab215"/></svg>