<svg id="Capa_1" enable-background="new 0 0 512 512" height="512" viewBox="0 0 512 512" width="512" xmlns="http://www.w3.org/2000/svg"><path d="m491.972 178.685-216.12-164.49c-11.729-8.928-27.975-8.928-39.704 0l-216.12 164.49c-5.479 4.17-8.669 10.649-8.669 17.493v270.719c0 20.767 16.835 37.603 37.603 37.603h414.079c20.767 0 37.602-16.835 37.602-37.602v-270.72c-.001-6.831-3.181-13.315-8.671-17.493z" fill="#fce25c"/><path d="m459.771 377.614h-407.542c-7.582 0-13.729-6.147-13.729-13.729v-234.386c0-7.582 6.147-13.729 13.729-13.729h407.542c7.582 0 13.729 6.147 13.729 13.729v234.387c0 7.582-6.147 13.728-13.729 13.728z" fill="#67c846"/><path d="m106.444 342.433c-2.97-16.196-15.773-28.998-31.968-31.968-3-.55-5.143-3.225-5.143-6.275v-114.996c0-3.05 2.142-5.725 5.143-6.275 16.196-2.97 28.998-15.772 31.968-31.968.55-3 3.225-5.142 6.275-5.142h283.582c3.066 0 5.725 2.17 6.281 5.186 3.164 17.188 17.348 30.28 34.404 32.305 3.233.384 5.68 3.099 5.68 6.355v114.074c0 3.256-2.447 5.971-5.68 6.355-17.059 2.026-31.24 15.12-34.404 32.305-.555 3.016-3.214 5.186-6.281 5.186h-283.581c-3.05 0-5.725-2.142-6.276-5.142z" fill="#bfe7ad"/><path d="m436.987 183.3c-17.057-2.026-31.24-15.117-34.404-32.305-.555-3.016-3.214-5.186-6.281-5.186h-36.986c3.066 0 5.725 2.17 6.281 5.186 3.165 17.188 17.348 30.28 34.404 32.305 3.233.384 5.68 3.099 5.68 6.355v143.106c5.773-12.286 17.609-21.051 31.306-22.677 3.233-.384 5.68-3.099 5.68-6.355v-114.074c0-3.256-2.447-5.971-5.68-6.355z" fill="#acdf91"/><circle cx="256" cy="246.692" fill="#e5f5de" r="66.558"/><path d="m256 180.134c-6.373 0-12.529.914-18.364 2.587 27.824 7.974 48.194 33.585 48.194 63.971s-20.37 55.997-48.194 63.971c5.836 1.672 11.991 2.587 18.364 2.587 36.759 0 66.558-29.799 66.558-66.558s-29.799-66.558-66.558-66.558z" fill="#dcf0cf"/><path d="m235.83 369.657-224.472-170.845v268.086c0 20.767 16.835 37.603 37.603 37.603h414.079c20.767 0 37.602-16.835 37.602-37.603v-268.087l-224.472 170.846c-11.917 9.071-28.423 9.071-40.34 0z" fill="#fbd307"/><path d="m463.656 226.961v239.936c0 20.767-16.835 37.603-37.602 37.603h36.986c20.767 0 37.602-16.835 37.602-37.603v-268.086z" fill="#f9c301"/><path d="m253.814 271.788c-9.7-.241-16.994-5.451-16.994-9.94 0-2.244 2.004-5.611 4.489-5.611 3.046 0 5.451 5.21 12.506 6.012v-15.952c-7.295-2.725-15.552-5.851-15.552-16.112 0-10.18 7.536-14.589 15.552-15.631v-2.244c0-1.042 1.202-2.004 2.725-2.004 1.363 0 2.726.962 2.726 2.004v2.084c5.21.16 13.707 1.683 13.707 6.332 0 1.844-1.282 5.531-4.248 5.531-2.244 0-4.088-2.565-9.459-2.966v14.108c7.134 2.645 15.15 6.252 15.15 17.154 0 9.859-6.172 15.551-15.15 16.994v2.485c0 1.042-1.362 2.004-2.726 2.004-1.523 0-2.725-.962-2.725-2.004v-2.244zm.641-36.152v-12.104c-4.008.641-6.412 2.565-6.412 5.611 0 3.527 2.725 5.05 6.412 6.493zm4.168 12.585v13.948c3.528-.721 6.012-2.805 6.012-6.573 0-3.928-2.564-5.852-6.012-7.375z"/><path d="m134.454 99.072c1.583 0 3.18-.5 4.536-1.532l101.7-77.403c9.014-6.862 21.606-6.862 30.62 0l101.625 77.347c3.297 2.508 8.001 1.87 10.51-1.426 2.509-3.297 1.87-8.002-1.426-10.511l-101.623-77.347c-14.364-10.934-34.429-10.933-48.791 0l-101.699 77.402c-3.296 2.509-3.935 7.215-1.426 10.511 1.476 1.94 3.711 2.959 5.974 2.959z"/><path d="m496.528 172.699-15.516-11.809v-31.412c0-11.707-9.524-21.231-21.23-21.231h-407.564c-11.707 0-21.231 9.524-21.231 21.231v31.412l-15.516 11.809c-7.28 5.542-11.627 14.313-11.627 23.462v270.734c0 24.774 20.174 45.105 45.105 45.105h414.101c24.678 0 45.105-20.084 45.105-45.105 0-13.444 0-257.315 0-270.734.001-9.15-4.346-17.921-11.627-23.462zm-177.526 173.777 174.152-132.548v252.967c0 3.569-.628 6.992-1.772 10.171zm-89.949 8.591h53.894l-11.319 8.615c-9.202 7.003-22.056 7.003-31.258 0zm-205.508 127.949c-2.971-4.665-4.7-10.193-4.7-16.121v-252.967l175.492 133.567zm463.898-298.38c3.299 2.511 5.349 6.375 5.65 10.488l-12.081 9.195v-24.578zm-435.225-61.388h407.565c3.435 0 6.229 2.795 6.229 6.23v86.258l-163.355 124.33h-93.313l-163.356-124.33v-86.258c0-3.435 2.795-6.23 6.23-6.23zm-27.661 61.387 6.431-4.894v24.578l-12.081-9.195c.301-4.112 2.35-7.977 5.65-10.489zm24.392 312.364c-5.18 0-10.058-1.315-14.319-3.629l172.024-136.499 24.632 18.747c14.55 11.075 34.877 11.074 49.427 0l25.897-19.71 176.314 133.571c-5.306 4.675-12.262 7.521-19.874 7.521h-414.101z"/><path d="m256 172.615c-40.838 0-74.063 33.224-74.063 74.062s33.225 74.063 74.063 74.063 74.063-33.224 74.063-74.063-33.225-74.062-74.063-74.062zm0 133.124c-32.567 0-59.062-26.495-59.062-59.062s26.495-59.061 59.062-59.061 59.062 26.495 59.062 59.061-26.495 59.062-59.062 59.062z"/><path d="m69.324 214.728c4.143 0 7.5-3.358 7.5-7.5v-17.145c18.397-3.793 33.003-18.398 36.794-36.794h281.782c4.001 19.424 20.156 34.583 39.777 37.32v16.618c0 4.142 3.358 7.5 7.5 7.5 4.143 0 7.5-3.358 7.5-7.5v-17.59c0-7.037-5.286-12.971-12.297-13.804-13.897-1.65-25.376-12.431-27.915-26.216-1.207-6.565-6.951-11.33-13.657-11.33h-283.596c-6.71 0-12.452 4.748-13.653 11.291-2.404 13.114-12.831 23.54-25.945 25.945-6.542 1.2-11.291 6.942-11.291 13.653v18.051c0 4.143 3.358 7.501 7.501 7.501z"/></svg>